<?xml version="1.0" encoding="utf-8"?>
<!-- Generator: Adobe Illustrator 14.0.0, SVG Export Plug-In . SVG Version: 6.00 Build 43363)  -->
<!DOCTYPE svg PUBLIC "-//W3C//DTD SVG 1.1//EN" "http://www.w3.org/Graphics/SVG/1.1/DTD/svg11.dtd">
<svg version="1.1" id="Layer_1" xmlns="http://www.w3.org/2000/svg" xmlns:xlink="http://www.w3.org/1999/xlink" x="0px" y="0px"
	 width="300px" height="300px" viewBox="0 0 300 300" enable-background="new 0 0 300 300" xml:space="preserve">
<path d="M181.941,205.858c24.074,4.026,47.914,9.34,71.92,13.72c8.824,0.535,18.244,0.998,26.41-3.001
	c0.772-5.118,0.315-10.444-1.506-15.295c-3.988-8.479-9.512-16.299-16.363-22.706c-21.793-19.532-49.848-31.091-78.44-36.146
	C122.646,129.516,61.301,116.73,0,103.75v6.286c21.843,4.618,43.693,9.204,65.543,13.787c16.549,3.471,33.099,6.939,49.645,10.424
	c28.215,6.074,56.582,11.507,84.656,18.175c15.98,4.419,31.422,11.063,45.131,20.453c7.219,4.646,13.967,10.196,19.35,16.916
	c4.808,6.709,10.453,13.735,10.394,22.44c-0.001,0-0.002,0.001-0.003,0.001v0.001c-1.082,0.324-2.162,0.65-3.236,0.98
	c-0.056-2.651-0.066-5.562-1.979-7.639c-3.932-4.521-9.55-7.167-15.055-9.261c-12.114-4.025-24.877-5.531-37.53-6.723
	c-12.106-0.459-24.31-0.357-36.328,1.304c-2.462,0.261-4.592,1.346-6.524,2.755c-1.022,0.746-1.986,1.585-2.919,2.439
	c-0.125,0.115-0.254,0.229-0.378,0.344c-45.774-9.565-91.523-19.253-137.303-28.798c2.638-3.719,2.693-9.102-0.959-12.196
	c-6.629-6.01-15.158-8.99-23.838-10.856c-1.447-0.311-2.897-0.591-4.344-0.849c-1.447-0.258-2.89-0.494-4.321-0.717v6.233
	c8.303,1.566,16.866,3.181,24.229,7.54c1.124,0.605,2.113,1.388,3.005,2.273c0.036,0.036,0.074,0.068,0.109,0.104
	c0.03,0.03,0.058,0.063,0.088,0.094c0.883,0.906,1.671,1.913,2.392,2.956c-3.004,3.543-7.958,2.647-11.97,1.822
	C11.916,162.71,5.856,161.936,0,160.25v6.905c56.399,11.233,112.599,23.483,168.916,35.14
	C173.408,202.944,177.482,205.106,181.941,205.858z M202.961,195.405c6.4-0.108,12.84-0.028,19.178,0.988
	c11.971,1.497,24.244,2.854,35.35,7.884c3.283,1.813,7.406,3.665,7.976,7.856c-1.459,0.395-2.858,1.287-4.419,1.091
	c-6.095-0.352-12.083-1.555-18.089-2.563c-21.616-4.061-43.175-8.42-64.724-12.814C186.303,195.804,194.688,195.7,202.961,195.405z"
	/>
<path d="M31.21,177.466c-10.377-2.159-20.851-3.84-31.21-6.077v6.252c9.849,2.069,19.772,3.783,29.651,5.712
	C30.212,181.401,30.693,179.427,31.21,177.466z"/>
<path d="M169.889,207.361c-0.418,1.989-0.838,3.983-1.305,5.966c31.664,6.387,63.359,12.624,95.014,19.054
	c0.66-1.936,1.08-3.939,1.508-5.932C233.385,219.994,201.626,213.728,169.889,207.361z"/>
<circle cx="76.379" cy="96.378" r="21.6"/>
<circle cx="122.377" cy="106.391" r="21.6"/>
<circle cx="168.379" cy="115.379" r="21.6"/>
<circle cx="30.38" cy="86.381" r="21.6"/>
</svg>
