<?xml version="1.0" encoding="utf-8"?>
<!-- Generator: Adobe Illustrator 21.0.0, SVG Export Plug-In . SVG Version: 6.00 Build 0)  -->
<svg version="1.1" id="Layer_1" xmlns="http://www.w3.org/2000/svg" xmlns:xlink="http://www.w3.org/1999/xlink" x="0px" y="0px"
	 viewBox="0 0 2004.3 2010.6" style="enable-background:new 0 0 2004.3 2010.6;" xml:space="preserve">
<style type="text/css">
	.st0{fill:#7A7A7E;}
</style>
	<path class="st0" d="M1927.8,617.2h-687.1c127.2,82.7,216.3,222.7,216.3,388.1c0,31.8-6.4,70-12.7,101.8v6.4
		c-6.4,50.9-25.4,95.4-50.9,140l-432.6,757.1H999c553.5,0,1005.3-445.4,1005.3-1005.3C2004.2,865.3,1978.7,731.7,1927.8,617.2z
		 M1005.3,1457c-127.2,0-248.1-57.3-330.8-140c-31.8-31.8-57.3-63.6-82.7-101.8l-12.7-12.7L152.7,470.8C57.3,623.5,0,808,0,1005.3
		c0,515.4,381.7,935.3,878,992.5l343.6-598.1C1158,1437.9,1081.6,1457,1005.3,1457z M1005.3,0c-330.8,0-623.5,159.1-808,407.2
		l343.6,585.3c6.4,6.4,6.4,19.1,6.4,25.4v-19.1c0-222.7,165.4-413.6,375.4-445.4h6.4c38.2-12.7,76.3-12.7,114.5-12.7h846.2
		C1724.2,222.7,1387,0,1005.3,0z M1367.9,1005.3c0,203.6-165.4,362.7-362.7,362.7c-203.6,0-362.7-165.4-362.7-362.7
		S808,642.6,1005.3,642.6C1202.5,636.2,1367.9,801.7,1367.9,1005.3z"/>
</svg>
