<?xml version="1.0" encoding="utf-8"?>
<!-- Generator: Adobe Illustrator 21.0.0, SVG Export Plug-In . SVG Version: 6.00 Build 0)  -->
<svg version="1.1" id="circle_of_friends__x5F__black"
	 xmlns="http://www.w3.org/2000/svg" xmlns:xlink="http://www.w3.org/1999/xlink" x="0px" y="0px" viewBox="0 0 425.2 425.2"
	 style="enable-background:new 0 0 425.2 425.2;" xml:space="preserve">
<style type="text/css">
	.st0{fill:#C43B3B;}
</style>
<path class="st0" d="M212.6,70.9c-78.3,0-141.7,63.5-141.7,141.7c0,78.3,63.5,141.7,141.7,141.7s141.7-63.5,141.7-141.7
	C354.3,134.3,290.9,70.9,212.6,70.9z M242.7,124c5-8.7,16.2-11.7,24.9-6.7c8.7,5,11.7,16.2,6.7,24.9c-5,8.7-16.2,11.7-24.9,6.7
	C240.7,143.9,237.7,132.7,242.7,124z M120.8,230.8c-10.1,0-18.2-8.2-18.2-18.2c0-10.1,8.2-18.2,18.2-18.2c10.1,0,18.2,8.2,18.2,18.2
	C139,222.7,130.9,230.8,120.8,230.8z M136.9,232.6c5.8-4.7,9.6-11.9,9.6-20c0-8.1-3.7-15.3-9.6-20c4.9-18.7,16.6-34.7,32.3-45.2
	l13.5,22.6c-13.4,9.4-22.1,24.9-22.1,42.5c0,17.6,8.7,33.1,22.1,42.5l-13.5,22.6C153.5,267.3,141.8,251.3,136.9,232.6z M267.6,307.9
	c-8.7,5-19.9,2-24.9-6.7c-5-8.7-2-19.9,6.7-24.9c8.7-5,19.9-2.1,24.9,6.7C279.3,291.7,276.3,302.8,267.6,307.9z M267.7,268.2
	c-7-2.7-15.1-2.3-22.1,1.7c-7,4-11.4,10.9-12.5,18.3c-6.6,1.8-13.4,2.7-20.6,2.7c-12.5,0-24.3-2.9-34.7-8.1l12.8-23
	c6.7,3.1,14.1,4.8,21.9,4.8c27.2,0,49.4-20.8,51.8-47.4l26.4,0.4C289.5,237.3,280.9,255.1,267.7,268.2z M264.4,208
	c-2.3-26.5-24.6-47.4-51.8-47.4c-7.8,0-15.2,1.7-21.9,4.8l-12.8-23c10.5-5.2,22.3-8.1,34.7-8.1c7.1,0,14,1,20.6,2.7
	c1.2,7.4,5.5,14.2,12.5,18.3c7,4,15.1,4.4,22.1,1.7c13.2,13.1,21.7,30.8,23,50.6L264.4,208z"/>
</svg>
