<?xml version="1.0" encoding="utf-8"?>
<!-- Generator: Adobe Illustrator 21.0.0, SVG Export Plug-In . SVG Version: 6.00 Build 0)  -->
<svg version="1.1" id="circle_of_friends__x5F__black"
	 xmlns="http://www.w3.org/2000/svg" xmlns:xlink="http://www.w3.org/1999/xlink" x="0px" y="0px" viewBox="0 0 283.5 283.5"
	 style="enable-background:new 0 0 283.5 283.5;" xml:space="preserve">
<style type="text/css">
	.st0{fill:#C43B3B;}
</style>
<path class="st0" d="M141.7,0C63.5,0,0,63.5,0,141.7C0,220,63.5,283.5,141.7,283.5S283.5,220,283.5,141.7C283.5,63.5,220,0,141.7,0z
	 M171.8,53.1c5-8.7,16.2-11.7,24.9-6.7c8.7,5,11.7,16.2,6.7,24.9c-5,8.7-16.2,11.7-24.9,6.7C169.8,73,166.8,61.8,171.8,53.1z
	 M49.9,160c-10.1,0-18.2-8.2-18.2-18.2c0-10.1,8.2-18.2,18.2-18.2c10.1,0,18.2,8.2,18.2,18.2C68.2,151.8,60,160,49.9,160z M66,161.7
	c5.8-4.7,9.6-11.9,9.6-20c0-8.1-3.7-15.3-9.6-20C71,103,82.6,87,98.3,76.6l13.5,22.6c-13.4,9.4-22.1,24.9-22.1,42.5
	c0,17.6,8.7,33.1,22.1,42.5l-13.5,22.6C82.6,196.4,71,180.4,66,161.7z M196.7,237c-8.7,5-19.9,2-24.9-6.7c-5-8.7-2-19.9,6.7-24.9
	c8.7-5,19.9-2.1,24.9,6.7C208.4,220.8,205.5,232,196.7,237z M196.9,197.3c-7-2.7-15.1-2.3-22.1,1.7c-7,4-11.4,10.9-12.5,18.3
	c-6.6,1.8-13.4,2.7-20.6,2.7c-12.5,0-24.3-2.9-34.7-8.1l12.8-23c6.7,3.1,14.1,4.8,21.9,4.8c27.2,0,49.4-20.8,51.8-47.4l26.4,0.4
	C218.6,166.5,210.1,184.2,196.9,197.3z M193.5,137.1c-2.3-26.5-24.6-47.4-51.8-47.4c-7.8,0-15.2,1.7-21.9,4.8l-12.8-23
	c10.5-5.2,22.3-8.1,34.7-8.1c7.1,0,14,1,20.6,2.7c1.2,7.4,5.5,14.2,12.5,18.3c7,4,15.1,4.4,22.1,1.7c13.2,13.1,21.7,30.8,23,50.6
	L193.5,137.1z"/>
</svg>
