<?xml version="1.0" encoding="utf-8"?>
<!-- Generator: Adobe Illustrator 12.0.0, SVG Export Plug-In  -->
<svg  version="1.1" xmlns="http://www.w3.org/2000/svg" xmlns:xlink="http://www.w3.org/1999/xlink" xmlns:a="http://ns.adobe.com/AdobeSVGViewerExtensions/3.0/"
	 width="401" height="501" viewBox="-0.6435547 -0.3779297 401 501" enable-background="new -0.6435547 -0.3779297 401 501"
	 xml:space="preserve">
<defs>
</defs>
<polygon opacity="0" fill-rule="evenodd" clip-rule="evenodd" fill="#FFFFFF" points="0,0 399.46875,0 399.46875,500 0,500 0,0 "/>
<path fill-rule="evenodd" clip-rule="evenodd" fill="#CCCCCC" d="M298.6191406,196.8012695
	c22.1699219,10.3769531,53.3027344,23.1137695,44.8115234,10.3769531c0,0-7.546875-16.980957-42.453125-25.0009766
	c0,0,40.0947266,0.472168,79.7177734,25.9443359c0,0-22.640625-26.8867188-68.8681641-41.0380859
	c-16.9824219-5.6606445-24.0576172-6.6040039-35.8525391-9.4350586
	c-27.3574219-0.9433594-22.1699219,3.7744141-14.1503906,8.0200195c0,0,12.7373047,5.1894531-1.4160156,0.9438477
	c-11.3203125-3.7744141-30.6611328-7.5488281-58.9638672-5.6616211h0.9443359
	c56.6064453,3.3017578,106.6054688,56.605957,121.2294922,65.5683594c0,0-9.4335938-14.6230469-25.4726563-29.7177734H298.6191406
	L298.6191406,196.8012695z"/>
<path fill-rule="evenodd" clip-rule="evenodd" fill="#CCCCCC" d="M132.5751953,199.1591797
	c3.3007813-5.6601563,31.1328125-22.1699219,43.8691406-25.0009766l1.4150391-0.4707031
	c-10.8496094-1.8876953-40.0947266,3.7729492-50.9458008,10.8491211c-8.4897461,5.1894531-14.1499023,9.90625-14.1499023,9.90625
	c-0.9438477-3.3022461-1.8876953-7.0766602,4.7163086-12.265625c-11.7929688,4.246582-24.5297852,13.2089844-23.5859375,32.5483398
	c-2.3583984,2.3583984-1.8862305,5.6606445-1.4150391,8.0200195c0.9438477,2.8295898,3.3022461,4.7167969,5.1894531,2.8295898
	c0,0,0.4711914,25.0009766-19.3408203,37.265625l0,0c22.1713867-5.6591797,33.0195313-22.1704102,32.5483398-38.2089844
	L132.5751953,199.1591797L132.5751953,199.1591797z"/>
<path fill-rule="evenodd" clip-rule="evenodd" fill="#CCCCCC" d="M195.3115234,266.6152344
	c-38.2075195,0.4707031-54.7177734-22.6430664-54.7177734-22.6430664
	c6.6040039-0.4711914,10.3774414,3.3022461,24.5288086-0.9433594c19.8120117-6.6040039,7.0761719-21.2265625,7.0761719-21.2265625
	c2.3583984,0.4711914,6.6040039,2.3583984,5.1894531-8.019043c-3.7744141-23.1137695,12.7353516-33.4921875,12.7353516-33.4921875
	l-0.4711914,2.3583984c-1.4160156,26.8881836,10.3779297,33.4912109,10.3779297,33.4912109
	c13.2080078-5.6606445,11.7919922,15.5673828,11.7919922,15.5673828
	c11.3212891,24.0546875,4.2460938,51.4179688,4.2460938,51.4179688
	c-4.2460938-33.0219727-9.9072266-27.3632813-9.9072266-27.3632813c2.3603516,13.6845703-8.9628906,19.34375-8.9628906,19.34375
	C198.6142578,273.6923828,198.1435547,266.6152344,195.3115234,266.6152344L195.3115234,266.6152344z"/>
<path fill-rule="evenodd" clip-rule="evenodd" fill="#CCCCCC" d="M190.5947266,147.7426758h-0.4711914
	c-23.1137695-0.4711914-27.8305664-17.9248047-14.6225586-23.5864258
	c7.0761719-2.8295898,17.9257813-6.1313477,10.8496094-6.1313477c-5.6606445,0.472168-15.0952148,0.9438477-10.378418-2.8305664
	c3.3017578-2.8295898,11.7929688-5.6606445,16.0385742-6.6030273c-8.4912109,4.2446289-6.1313477,13.2080078,12.7363281,7.0751953
	c3.3007813-0.9438477,51.4160156-17.9248047,48.1152344-25.472168c11.7919922,8.0185547-6.6035156,16.0375977-17.9248047,21.2265625
	c-6.1328125,2.8310547-8.9619141,3.7734375-5.6611328,5.6601563c6.6035156,1.4160156,7.5488281,4.2456055,7.0751953,5.6621094
	c-3.3007813,5.6601563-21.2285156,12.2626953-46.6992188,11.3203125
	c16.0371094-2.3583984,26.8867188-9.9072266,19.8115234-12.2641602c0,3.7729492-16.5107422,7.5463867-20.2836914,9.4335938
	C183.9907227,134.0634766,171.2553711,141.1386719,190.5947266,147.7426758L190.5947266,147.7426758z"/>
<path fill-rule="evenodd" clip-rule="evenodd" fill="#CCCCCC" d="M135.4047852,146.800293
	c11.3217773,3.3007813,20.2841797,8.9624023,23.5864258,14.1503906
	c-13.6806641-7.5478516-36.7944336-9.4335938-44.3408203-8.9624023c-4.2451172-0.4711914-35.3789063-3.7734375-36.3227539-3.7734375
	c-41.5107422-3.3032227-50.0004883-17.9257813-56.1333008-21.6987305
	c6.1328125,2.8295898,25.9443359,10.3769531,36.3212891,8.9624023c-9.4331055-1.887207-18.8681641-6.1328125-21.6987305-8.9624023
	c-6.6040039-7.0766602-5.1879883-16.5097656-3.7734375-20.7553711c8.019043,10.3769531,33.4921875,21.6987305,77.8325195,29.2451172
	C95.78125,142.0825195,85.4038086,150.5732422,135.4047852,146.800293L135.4047852,146.800293z"/>
<path fill-rule="evenodd" clip-rule="evenodd" fill="#CCCCCC" d="M245.3134766,193.0268555
	c15.0947266,6.6049805,31.1328125,27.831543,32.5488281,32.5483398c0,1.4160156,0,2.3598633,0.4707031,3.7729492
	c1.8876953,1.887207,4.2460938,4.7182617,5.1904297,6.6054688c3.7724609,5.1879883,7.546875,13.6791992,6.6044922,15.565918
	c-0.4716797,0-3.3037109-3.7729492-4.2460938-5.1889648c-3.7744141-6.6040039-9.9072266-9.9057617-7.5488281-3.3017578
	c3.7744141,8.9643555,12.265625,16.0375977,18.3984375,21.2250977
	c-16.5107422-5.6591797-32.5488281-20.7529297-34.9072266-30.6586914c0-2.3598633-3.7744141-10.378418-9.9072266-15.5673828
	c-7.0742188-16.5102539-22.1699219-28.7744141-34.90625-35.378418
	C224.0859375,185.4804688,239.1806641,192.5556641,245.3134766,193.0268555L245.3134766,193.0268555z"/>
<polygon fill-rule="evenodd" clip-rule="evenodd" fill="#14282C" points="76.9130859,311.4267578 299.0898438,311.4267578
	299.0898438,310.0126953 76.9130859,310.0126953 76.9130859,311.4267578 "/>
<path fill-rule="evenodd" clip-rule="evenodd" fill="#14282C" d="M82.5732422,376.9951172
	c1.4145508-0.4716797,2.8305664-1.8847656,4.2456055-2.8320313h3.3017578v20.7558594h-3.7729492v-16.5107422
	c-1.4160156,1.4189453-2.3598633,2.3613281-3.7744141,2.8320313V376.9951172L82.5732422,376.9951172z"/>
<path fill-rule="evenodd" clip-rule="evenodd" fill="#14282C" d="M152.859375,384.0722656
	c1.4150391,0,1.8862305-1.8896484,1.8862305-3.7744141c0-1.8896484-0.4711914-3.7744141-1.8862305-3.7744141
	c-1.8881836,0-2.359375,1.8847656-2.359375,3.7744141C150.5,382.1826172,150.9711914,384.0722656,152.859375,384.0722656
	l-1.4160156,2.8271484c-2.8305664,0-4.7167969-2.8271484-4.7167969-6.1298828c0-4.2460938,2.3583984-7.078125,5.6606445-7.078125
	c5.1889648,0,6.6040039,3.7744141,6.6040039,8.9628906c0,5.6640625-0.4726563,12.7363281-6.6040039,12.7363281
	c-3.3022461,0-5.6606445-1.4130859-5.6606445-5.6591797H150.5c0,1.4140625,0.9433594,2.3613281,1.887207,2.3613281
	c2.8295898,0,2.8295898-4.2460938,2.3583984-6.6064453c-0.9438477,0.9423828-1.8862305,1.4130859-3.3022461,1.4130859
	L152.859375,384.0722656L152.859375,384.0722656z"/>
<path fill-rule="evenodd" clip-rule="evenodd" fill="#14282C" d="M285.4111328,395.390625
	c-2.8320313,0-6.1328125-2.3554688-6.1328125-6.1298828c0-2.8320313,1.8867188-4.7167969,3.7744141-5.1884766v-0.4707031
	c-1.8876953-0.4716797-3.3037109-1.8896484-3.3037109-4.7167969c0-3.3037109,3.3037109-5.1933594,5.6621094-5.1933594v2.8320313
	c-1.4160156,0-2.3583984,1.4140625-2.3583984,2.8320313c0,1.8847656,0.9423828,2.8271484,2.8291016,2.8271484
	c0.9423828,0,2.3583984-0.9423828,2.3583984-2.8271484c0-1.4179688-1.4160156-2.8320313-2.8291016-2.8320313v-2.8320313
	c2.8291016,0,6.1298828,1.4189453,6.1298828,5.1933594c0,2.8271484-1.4130859,4.7167969-3.3007813,4.7167969l0,0l0,0
	c1.8876953,0.9423828,3.7744141,2.8271484,3.7744141,5.6591797
	C292.0146484,393.0351563,288.7119141,395.390625,285.4111328,395.390625l0.4707031-3.2978516
	c0.9423828,0,2.3583984-1.4189453,2.3583984-3.3037109c0-1.8896484-0.9443359-3.3027344-2.8291016-3.3027344
	c-0.9453125,0-2.3583984,1.4130859-2.3583984,3.3027344c0,1.8847656,0.9423828,3.3037109,2.8291016,3.3037109
	L285.4111328,395.390625L285.4111328,395.390625z"/>
<path fill-rule="evenodd" clip-rule="evenodd" fill="#14282C" d="M218.8974609,384.0722656
	c1.8876953,0,2.3583984-1.8896484,2.3583984-3.7744141c0-1.8896484-0.4707031-3.7744141-2.3583984-3.7744141
	c-1.8867188,0-2.3583984,1.8847656-2.3583984,3.7744141C216.5390625,382.1826172,217.0107422,384.0722656,218.8974609,384.0722656
	l-0.9423828,2.8271484c-2.8320313,0-5.1875-2.8271484-5.1875-6.1298828c0-4.2460938,2.8291016-7.078125,6.1298828-7.078125
	c4.7167969,0,6.1328125,3.7744141,6.1328125,8.9628906c0,5.6640625-0.4707031,12.7363281-6.1328125,12.7363281
	c-3.3007813,0-5.6591797-1.4130859-5.6591797-5.6591797h3.7724609c0,1.4140625,0.4736328,2.3613281,1.8867188,2.3613281
	c2.3583984,0,2.3583984-4.2460938,2.3583984-6.6064453c-0.9423828,0.9423828-1.8867188,1.4130859-3.3007813,1.4130859
	L218.8974609,384.0722656L218.8974609,384.0722656z"/>
<path fill-rule="evenodd" clip-rule="evenodd" fill="#14282C" d="M130.6879883,325.1054688
	c0.4711914,0.4716797,0.4711914,1.4189453-0.4711914,3.3037109c-0.472168,0.9423828-11.7929688,26.8867188-12.265625,28.2998047
	c-0.4711914,1.4189453-1.4145508,2.8320313-2.3583984,3.7744141h6.1328125c0,0-0.472168-0.4707031,0.4711914-2.3554688
	c0.4726563-1.4189453,10.8496094-25.9443359,10.8496094-25.9443359l10.8496094,25.0019531
	c0.472168,0.9423828,0.472168,2.3554688,0.472168,3.2978516h7.5463867c0,0-1.8857422-2.3554688-2.8295898-4.2451172
	l-14.1513672-31.1328125H130.6879883L130.6879883,325.1054688z"/>
<polygon fill-rule="evenodd" clip-rule="evenodd" fill="#14282C" points="123.612793,344.4492188 141.0649414,344.4492188
	141.0649414,348.2177734 123.612793,348.2177734 123.612793,344.4492188 "/>
<path fill-rule="evenodd" clip-rule="evenodd" fill="#14282C" d="M179.2739258,344.9199219v9.4335938
	c-2.3583984,1.8847656-6.1313477,3.3027344-10.3769531,3.3027344c-7.5473633,0-13.2080078-7.0771484-13.2080078-15.0976563
	c0-8.9619141,6.1328125-14.6210938,13.6791992-14.6210938c3.7744141,0,7.0761719,0.9423828,10.378418,2.8320313v-4.7167969
	c-2.8310547-1.4179688-6.6040039-1.8896484-10.378418-1.8896484c-10.8496094,0-19.8120117,7.078125-19.8120117,18.3955078
	c0,10.3808594,8.0200195,18.8671875,19.3408203,18.8671875c6.1313477,0,11.3208008-2.3554688,15.09375-5.1875v-11.3183594
	c0,0,0-2.3613281,0.9438477-2.3613281h-6.6040039C178.3305664,342.5585938,179.2739258,343.5009766,179.2739258,344.9199219
	L179.2739258,344.9199219z"/>
<path fill-rule="evenodd" clip-rule="evenodd" fill="#14282C" d="M292.4863281,342.5585938
	c0,8.0205078-6.1328125,15.0976563-13.2080078,15.0976563c-7.5488281,0-12.7373047-7.0771484-12.7373047-15.0976563
	c0-8.0195313,5.6591797-14.6210938,12.7373047-14.6210938C286.3535156,327.9375,292.4863281,334.5390625,292.4863281,342.5585938
	h5.6591797c0-10.375-8.4892578-18.3955078-18.8671875-18.3955078c-10.3789063,0-18.8701172,8.0205078-18.8701172,18.3955078
	c0,10.3808594,8.4912109,18.8671875,18.8701172,18.8671875c10.3779297,0,18.8671875-8.4863281,18.8671875-18.8671875H292.4863281
	L292.4863281,342.5585938z"/>
<path fill-rule="evenodd" clip-rule="evenodd" fill="#14282C" d="M80.6875,325.1054688c0,0,0.9433594,0.9472656,0.9433594,3.7744141
	c0,0,0,27.8291016,0,28.7763672c0,0.9423828-0.472168,2.3564453-0.9433594,2.8271484h6.1313477
	c0,0-0.9438477-0.9423828-0.9438477-2.8271484v-25.0019531l27.359375,29.71875c0,0,0-33.9638672,0-34.4355469
	c0-1.8847656,0.4726563-2.3603516,0.9438477-2.8320313h-6.1328125c0,0,0.9438477,0.9472656,0.9438477,2.8320313v22.1699219
	l-22.6416016-25.0019531H80.6875L80.6875,325.1054688z"/>
<path fill-rule="evenodd" clip-rule="evenodd" fill="#14282C" d="M200.0302734,325.1054688
	c0.4716797,0.4716797,0.4716797,1.4189453-0.4736328,3.3037109c-0.4707031,0.9423828-11.3203125,26.8867188-11.7915039,28.2998047
	c-0.9423828,1.4189453-1.8857422,2.8320313-2.8305664,3.7744141h6.1313477c0,0-0.4711914-0.4707031,0.4736328-2.3554688
	c0.4711914-1.4189453,10.8491211-25.9443359,10.8491211-25.9443359l10.8496094,25.0019531
	c0.4716797,0.9423828,0.4716797,2.3554688,0.4716797,3.2978516h7.5458984c0,0-1.8867188-2.3554688-2.8291016-4.2451172
	l-14.1503906-31.1328125H200.0302734L200.0302734,325.1054688z"/>
<polygon fill-rule="evenodd" clip-rule="evenodd" fill="#14282C" points="193.4267578,344.4492188 210.40625,344.4492188
	210.40625,348.2177734 193.4267578,348.2177734 193.4267578,344.4492188 "/>
<path fill-rule="evenodd" clip-rule="evenodd" fill="#14282C" d="M223.6142578,325.1054688
	c0,0,0.9453125,0.9472656,0.9453125,3.7744141c0,0,0,27.8291016,0,28.7763672c0,0.9423828-0.4736328,2.3564453-0.9453125,2.8271484
	h6.1328125c0,0-0.9423828-0.9423828-0.9423828-2.8271484v-25.0019531l27.3583984,29.71875c0,0,0-33.9638672,0-34.4355469
	c0-1.8847656,0.9443359-2.3603516,1.4160156-2.8320313h-6.1328125c0,0,0.9423828,0.9472656,0.9423828,2.8320313v22.1699219
	l-23.1123047-25.0019531H223.6142578L223.6142578,325.1054688z"/>
<path fill-rule="evenodd" clip-rule="evenodd" d="M189.6523438,450.5830078c-0.472168,0-0.9433594,0-1.4160156,0
	c-8.9624023,0-16.0375977-5.6591797-18.8681641-13.6787109c-1.4150391-0.9423828-3.7729492-1.8896484-5.6601563-1.8896484
	c2.3583984,11.7939453,12.2641602,20.7558594,24.5283203,20.7558594c0.4726563,0,0.9438477-0.4707031,1.4160156-0.4707031
	C189.1801758,453.4101563,189.1801758,452.4677734,189.6523438,450.5830078L189.6523438,450.5830078z"/>
<path fill-rule="evenodd" clip-rule="evenodd" d="M197.1982422,453.8867188
	c9.4365234-3.7744141,16.0400391-12.7373047,16.0400391-23.1181641c0-13.6787109-11.3203125-24.9970703-25.0019531-24.9970703
	c-12.2641602,0-22.6411133,9.4335938-24.5283203,21.2226563c1.887207,0,3.7744141,0.4765625,5.1889648,0.9472656
	c0.9438477-9.4335938,9.4335938-16.9824219,19.3393555-16.9824219c10.8496094,0,19.8115234,8.9628906,19.8115234,19.8095703
	c0,7.5488281-4.2451172,14.1552734-9.9042969,17.453125C197.1982422,450.5830078,197.1982422,452.4677734,197.1982422,453.8867188
	L197.1982422,453.8867188z"/>
<path fill-rule="evenodd" clip-rule="evenodd" fill="#0678B3" d="M133.9902344,405.7714844
	c-13.6791992,0-25.0009766,11.3183594-25.0009766,24.9970703c0,13.6796875,11.3217773,24.53125,25.0009766,24.53125
	c0,0,0.472168,0,0.9433594,0c0-0.9423828,0-3.3037109,0-4.7167969c-0.4711914,0-0.9433594,0-0.9433594,0
	c-11.3208008,0-19.8120117-8.9619141-19.8120117-19.8144531c0-10.8466797,8.4912109-19.8095703,19.8120117-19.8095703
	c10.8491211,0,19.8115234,8.9628906,19.8115234,19.8095703c0,7.5488281-4.2456055,13.6796875-10.3769531,17.453125
	c-0.4726563,1.4189453-0.9438477,3.3037109-0.4726563,5.6650391c8.9624023-3.7744141,15.5664063-12.7373047,15.5664063-23.1181641
	C158.5185547,417.0898438,147.6704102,405.7714844,133.9902344,405.7714844L133.9902344,405.7714844z"/>
<path fill-rule="evenodd" clip-rule="evenodd" fill="#FFBA00" d="M160.878418,428.4130859c0,0-0.4726563,0-0.9448242,0
	c0,1.8847656,0,2.8320313,0,4.7167969c0.472168,0,0.472168,0,0.9448242,0c8.9624023,0,16.5097656,5.6591797,18.8681641,13.6787109
	c1.4145508,0.9423828,3.7729492,1.8847656,5.6601563,1.8847656C183.5195313,437.375,173.1425781,428.4130859,160.878418,428.4130859
	L160.878418,428.4130859z"/>
<path fill-rule="evenodd" clip-rule="evenodd" fill="#FFA814" d="M151.9145508,429.8261719
	c-8.9624023,3.7744141-15.565918,12.7373047-15.565918,23.1123047c0,13.6796875,10.8491211,25.0029297,24.5297852,25.0029297
	c12.7353516,0,22.6411133-9.4335938,24.5283203-21.2285156c-1.4160156,0-3.3017578-0.4707031-4.7167969-0.9423828
	c-1.4160156,9.9052734-9.4345703,16.9824219-19.8115234,16.9824219c-10.8496094,0-19.8134766-8.9619141-19.8134766-19.8144531
	c0-7.5429688,4.2456055-13.6787109,10.378418-17.453125C151.9145508,433.1298828,151.9145508,431.7158203,151.9145508,429.8261719
	L151.9145508,429.8261719z"/>
<path fill-rule="evenodd" clip-rule="evenodd" fill="#008837" d="M215.5966797,428.4130859c-0.4736328,0-0.9443359,0-1.4160156,0
	c0.4716797,1.8847656,0.4716797,2.8320313,0,4.7167969c0.4716797,0,0.9423828,0,1.4160156,0
	c8.9628906,0,16.0380859,5.6591797,18.8671875,13.6787109c0.9453125,0.9423828,3.7744141,1.8847656,5.6621094,1.8847656
	C237.7675781,437.375,227.8603516,428.4130859,215.5966797,428.4130859L215.5966797,428.4130859z"/>
<path fill-rule="evenodd" clip-rule="evenodd" fill="#1A9431" d="M206.6347656,429.8261719
	c-9.4365234,3.7744141-16.0400391,12.7373047-16.0400391,23.1123047c0,13.6796875,11.3232422,25.0029297,25.0019531,25.0029297
	c12.2636719,0,22.6416016-9.4335938,24.5292969-21.2285156c-1.8876953,0-3.7744141-0.4707031-5.1884766-0.9423828
	c-0.9443359,9.9052734-9.4355469,16.9824219-19.3408203,16.9824219c-10.8496094,0-19.8115234-8.9619141-19.8115234-19.8144531
	c0-7.5429688,4.2451172-13.6787109,9.9042969-17.453125C206.6347656,433.1298828,206.6347656,431.7158203,206.6347656,429.8261719
	L206.6347656,429.8261719z"/>
<path fill-rule="evenodd" clip-rule="evenodd" fill="#FF0000" d="M247.671875,406.7138672
	c-13.2080078-2.8320313-26.4160156,5.6591797-29.2451172,18.8671875c0,0.4707031,0,0.9423828,0,1.4130859
	c1.4160156,0,3.3027344,0.4765625,4.7167969,0.9472656c0-0.4707031,0-0.9472656,0.4707031-1.4179688
	c1.8876953-10.3759766,12.265625-17.4541016,23.1152344-15.0927734
	c10.8496094,2.3554688,17.453125,12.7363281,15.5664063,23.1123047
	c-2.3583984,10.8525391-12.7363281,17.9248047-23.5859375,15.5693359
	c-7.0751953-1.4189453-12.734375-6.6064453-14.6240234-13.2080078c-1.8847656-0.9423828-3.3007813-1.4189453-5.6591797-1.8896484
	c1.4160156,9.4335938,8.9619141,17.9238281,19.3408203,19.8144531c13.2080078,2.8261719,26.4150391-5.6591797,29.2451172-18.8671875
	C269.8447266,422.2773438,261.3535156,409.0693359,247.671875,406.7138672L247.671875,406.7138672z"/>
<path fill-rule="evenodd" clip-rule="evenodd" fill="#FFA814" d="M243.9003906,22.2675781
	C243.9003906,22.2675781,243.4267578,21.7954102,243.9003906,22.2675781
	c9.4326172,13.6791992,4.7167969,39.1523438-5.1904297,50.9443359c-3.3007813,4.2456055-5.1884766,6.6040039-2.3583984,12.265625
	c4.2451172,11.7919922,0.9443359,24.5288086-14.1503906,29.7167969c-7.5488281,2.359375-10.8496094,4.2451172-18.8701172,1.4160156
	c16.5117188-4.7182617,20.7548828-15.0952148,15.0957031-23.5864258
	c-4.7167969,11.7929688-10.8496094,11.3217773-19.3408203,20.7568359
	c-2.8295898,2.8295898-12.2631836,18.3955078-9.4335938,33.4907227c-8.0185547-9.9057617-8.0185547-29.7177734-3.7729492-38.6801758
	c5.1865234-11.3217773,15.5649414-17.4545898,8.9609375-14.6240234c-2.3583984,1.887207-7.0751953,3.7744141-7.0751953,1.887207
	c-0.9423828-2.3583984,0.4711914-9.9057617,14.152832-20.2841797c-0.4736328-7.5473633,6.6035156-17.9248047,15.5664063-12.7368164
	C225.0302734,58.5893555,243.4267578,40.1923828,243.9003906,22.2675781L243.9003906,22.2675781z"/>
<path fill-rule="evenodd" clip-rule="evenodd" fill="#74017D" d="M221.2558594,177.9316406
	c-6.1328125-8.4897461-17.453125-11.7919922-26.8867188-11.3193359c6.1328125-1.887207,22.6416016-3.3032227,30.6611328,2.8295898
	c6.6044922,5.1889648,8.0205078,10.3779297,8.4912109,15.0947266c1.4160156,6.6040039,6.1328125,4.7167969,7.546875,4.2456055
	c8.9619141-3.7744141,12.2646484,2.3583984,14.1523438,6.6040039c3.3007813,10.8481445,0.4707031,28.3032227-18.3955078,47.6425781
	l-3.3037109-4.2456055c4.2460938-5.1879883,7.546875-15.5664063,8.4912109-21.2265625
	c0.4716797-6.1328125-1.4160156-10.8496094-8.0195313-7.0766602c-4.7167969,10.8496094,4.2451172,43.8696289,17.9238281,55.6635742
	c-16.0371094-4.7167969-26.4150391-20.7563477-28.3027344-26.8881836
	c-3.7714844-8.0200195-6.1298828-18.8691406-5.6591797-25.0009766c-0.4707031-8.0200195-2.3583984-14.6225586-4.7167969-19.8115234
	c-5.6611328-9.4350586-15.0947266-21.2280273-31.1333008-23.5849609
	c7.0751953-0.9448242,19.8129883-1.4160156,33.0180664,11.3193359c-0.9423828-1.8862305-1.4130859-3.7734375,0.4736328-5.1879883
	C217.9550781,175.1020508,220.7851563,177.4604492,221.2558594,177.9316406L221.2558594,177.9316406z"/>
<path fill-rule="evenodd" clip-rule="evenodd" fill="#FE6612" d="M107.5742188,129.8178711
	c-15.5664063,3.3022461-18.3969727,9.90625-21.6992188,14.6225586c-5.6601563,1.8876953-13.6787109,11.3222656-8.0185547,15.5664063
	c-1.4145508,5.6616211-16.0385742,21.2280273-31.6049805,26.8881836c16.980957,1.4150391,38.6801758-8.4912109,43.8691406-15.565918
	c-3.3017578,7.074707-0.4711914,15.565918,12.7358398,9.4331055c3.7744141-0.9423828,16.5107422-6.1313477,26.4169922-18.8681641
	c-13.2094727,8.019043-25.0009766,8.4912109-26.4169922,4.7182617c1.8881836-1.4160156,2.8305664-5.1894531,2.8305664-5.6616211
	c1.4150391,2.3583984,8.4912109,2.8305664,13.6801758,0c8.9624023-5.1879883,24.5288086-14.6225586,43.8696289-4.7167969l0,0
	c-10.8496094-15.0952148-31.1337891-19.3408203-37.2666016-18.8681641
	c-5.6591797-0.4726563-9.4335938,0.9433594-12.7358398,3.3017578c-6.6035156,3.3007813-8.4897461,0.4711914-4.7163086-1.887207
	c3.7729492-3.7744141,14.6225586-7.0751953,21.2265625-6.1328125
	C119.3671875,126.043457,107.5742188,129.8178711,107.5742188,129.8178711L107.5742188,129.8178711z"/>
<path fill-rule="evenodd" clip-rule="evenodd" fill="#1A9431" d="M148.612793,96.796875
	c17.4536133,18.8696289,25.0009766,51.8891602,25.0009766,51.8891602
	c-7.0751953-15.0947266-25.0009766-30.6611328-45.7563477-35.3779297c-9.90625-2.3598633-20.2832031-3.3017578-28.3017578-4.7167969
	c-20.2841797-2.8305664-36.3232422-14.6240234-37.737793-23.1137695
	c5.6601563,6.6025391,21.2265625,12.7353516,32.5483398,14.6225586c-5.6601563-3.3032227-9.9057617-7.0761719-9.9057617-16.5097656
	c-6.1328125-6.6049805-7.5473633-25.4731445-1.4160156-29.71875c4.7177734,5.1889648,9.9057617,8.4907227,13.2089844,8.9619141
	c10.3774414-0.9418945,20.2832031,0,32.0761719,6.6054688C136.8208008,74.6279297,144.8393555,86.8911133,148.612793,96.796875
	L148.612793,96.796875z M94.8374023,74.6279297c0.4726563,3.7734375,2.8310547,12.2631836,10.378418,17.4521484
	c5.6601563,4.2456055,17.4536133,8.4912109,27.8305664,9.4350586
	C117.9511719,94.9111328,100.9702148,82.6469727,94.8374023,74.6279297L94.8374023,74.6279297z"/>
<path fill-rule="evenodd" clip-rule="evenodd" fill="#0678B3" d="M79.7436523,291.6171875
	c15.5664063-7.0771484,33.9633789-25.4736328,38.6801758-41.5131836c1.4145508-7.0751953-1.887207-9.90625-4.2456055-3.7734375
	c-2.3583984,4.7172852-11.7929688,10.8510742-12.2641602-0.9433594c0-10.8496094,3.7729492-21.2265625,5.1879883-24.5288086
	c-4.2456055-15.0952148,8.9619141-25.0009766,13.6801758-24.5297852
	c10.3769531-18.3969727,37.2651367-32.0761719,54.2460938-31.1323242
	c-15.565918,6.6035156-28.7739258,26.4155273-31.1323242,43.8691406
	c4.7167969-10.3769531,25.9448242-9.4335938,24.0571289,10.8496094
	c-2.8305664,25.9443359-34.434082,52.8300781-62.2661133,65.0957031
	C93.4228516,290.6699219,83.987793,291.140625,79.7436523,291.6171875L79.7436523,291.6171875z M125.4990234,260.9560547
	c17.453125-12.2670898,25.9443359-35.8535156,22.1713867-45.2866211c-1.4160156,6.1328125-7.0766602,9.9057617-8.9624023,11.7929688
	C139.1791992,241.1416016,128.3295898,255.7626953,125.4990234,260.9560547L125.4990234,260.9560547z"/>
<path fill-rule="evenodd" clip-rule="evenodd" fill="#FF0000" d="M226.9179688,146.800293
	c-6.6044922-0.472168-18.8701172,0.9423828-28.7744141,8.0185547c5.6591797-8.4907227,16.9794922-16.9819336,30.6611328-20.2841797
	c8.4912109-2.3583984,24.0576172-2.3583984,25.4707031-6.6040039c-8.0166016,1.4150391-12.2626953-2.8305664-8.4882813-6.6040039
	c3.7724609-3.3017578,9.4335938-7.074707,21.2255859-11.3203125c3.3027344-9.90625,19.3408203-12.7368164,27.8320313-5.6606445
	c8.4912109-3.7744141,44.3398438-4.7177734,61.3222656,8.4902344
	c-21.6992188-2.3583984-48.5859375,10.8491211-55.6630859,16.9819336c-3.7724609,2.8295898-2.3583984,4.7167969,2.8320313,4.7167969
	c9.9042969,0.9438477,16.0371094,16.9824219,2.3583984,24.0576172c-2.3583984,0.9433594-5.1904297,1.887207-7.5488281,2.3583984
	c20.7558594,7.074707,31.6054688,6.6040039,31.6054688,6.6040039c-17.9238281,4.7163086-41.9814453-2.8295898-56.1347656-8.4912109
	C262.2958984,154.3466797,238.7099609,146.800293,226.9179688,146.800293L226.9179688,146.800293z M241.5419922,138.7802734
	c16.5078125,6.1313477,41.5107422,3.3022461,48.1142578-3.7744141c-7.5488281,0.4726563-13.2099609,0-15.0947266-0.9423828
	C262.7666016,139.2514648,250.0302734,139.2514648,241.5419922,138.7802734L241.5419922,138.7802734z"/>
</svg>
