<?xml version="1.0" encoding="UTF-8" standalone="no"?>
<!-- Generator: Adobe Illustrator 13.0.2, SVG Export Plug-In . SVG Version: 6.00 Build 14948)  -->

<svg
   xmlns:dc="http://purl.org/dc/elements/1.1/"
   xmlns:cc="http://creativecommons.org/ns#"
   xmlns:rdf="http://www.w3.org/1999/02/22-rdf-syntax-ns#"
   xmlns:svg="http://www.w3.org/2000/svg"
   xmlns="http://www.w3.org/2000/svg"
   xmlns:sodipodi="http://sodipodi.sourceforge.net/DTD/sodipodi-0.dtd"
   xmlns:inkscape="http://www.inkscape.org/namespaces/inkscape"
   version="1.0"
   id="Ebene_1"
   x="0px"
   y="0px"
   width="450.196px"
   height="455.596px"
   viewBox="0 0 450.196 455.596"
   enable-background="new 0 0 450.196 455.596"
   xml:space="preserve"
   inkscape:version="0.48.0 r9654"
   sodipodi:docname="2002_Winter_Olympics_logo.svg"><metadata
   id="metadata16410"><rdf:RDF><cc:Work
       rdf:about=""><dc:format>image/svg+xml</dc:format><dc:type
         rdf:resource="http://purl.org/dc/dcmitype/StillImage" /></cc:Work></rdf:RDF></metadata><defs
   id="defs16408" /><sodipodi:namedview
   pagecolor="#ffffff"
   bordercolor="#666666"
   borderopacity="1"
   objecttolerance="10"
   gridtolerance="10"
   guidetolerance="10"
   inkscape:pageopacity="0"
   inkscape:pageshadow="2"
   inkscape:window-width="1366"
   inkscape:window-height="706"
   id="namedview16406"
   showgrid="false"
   inkscape:zoom="1.2774475"
   inkscape:cx="237.81683"
   inkscape:cy="413.96121"
   inkscape:window-x="-8"
   inkscape:window-y="-8"
   inkscape:window-maximized="1"
   inkscape:current-layer="Ebene_1" />
<path
   d="m 163.71504,183.81739 121.55734,0 -0.14062,-28.00484 -60.31368,-34.94349 -61.10312,33.70205 0,29.24628"
   style="fill:#ffffff;fill-opacity:1;fill-rule:nonzero;stroke:none"
   id="path10607-0"
   inkscape:connector-curvature="0" /><polygon
   clip-rule="evenodd"
   points="200.763,0 224.801,14.816 224.801,97.567 176.726,69.884   176.726,42.349 200.763,55.068 200.763,0 "
   id="polygon16390"
   fill-rule="evenodd"
   fill="#FBC569"
   style="fill:#fec15f;fill-opacity:1" />
<polygon
   clip-rule="evenodd"
   points="236.819,7.932 249.434,0 249.434,55.068 273.471,42.349   273.471,69.884 311.458,47.887 311.458,75.719 224.801,126.597 224.801,97.567 236.819,90.234 236.819,7.932 "
   id="polygon16392"
   fill-rule="evenodd"
   fill="#FBC569"
   style="fill:#fec15f;fill-opacity:1" />
<polygon
   clip-rule="evenodd"
   points="138.293,47.887 224.801,97.567 224.801,126.597   114.255,190.794 114.255,163.41 176.726,126.597 114.255,90.234 114.255,61.802 200.763,112.082 200.763,97.567 138.293,61.802   138.293,47.887 "
   id="polygon16394"
   fill-rule="evenodd"
   fill="#F0971B"
   style="fill:#f58735;fill-opacity:1" />
<polygon
   clip-rule="evenodd"
   points="224.801,126.597 336.088,190.794 336.088,163.41   273.471,126.597 336.088,90.234 336.088,75.719 261.749,120.013 249.434,112.082 224.801,126.597 "
   id="polygon16396"
   fill-rule="evenodd"
   fill="#F0971B"
   style="fill:#f58735;fill-opacity:1" />
<polygon
   clip-rule="evenodd"
   points="138.293,190.794 200.763,155.627 200.763,182.264   224.801,168.947 249.434,182.264 249.434,155.627 311.458,190.794 311.458,205.906 273.471,183.91 273.471,211.444 249.434,196.628   249.434,253.794 224.801,239.277 200.763,253.794 200.763,196.628 176.726,211.444 176.726,183.91 138.293,205.906 138.293,190.794   "
   id="polygon16398"
   fill-rule="evenodd"
   fill="#697C99"
   style="fill:#4570b5;fill-opacity:1" />
<path
   stroke-miterlimit="2.6131"
   d="M163.816,373.655  c14.542,0,26.56,11.973,26.56,26.787c0,14.663-12.018,26.787-26.56,26.787c-14.69,0-26.56-12.124-26.56-26.787  C137.256,385.627,149.126,373.655,163.816,373.655 M224.801,373.206c14.542,0,26.561,12.122,26.561,26.787  c0,14.814-12.019,26.784-26.561,26.784c-14.69,0-26.561-11.97-26.561-26.784C198.241,385.328,210.111,373.206,224.801,373.206   M193.493,398.196c14.542,0,26.561,11.973,26.561,26.787c0,14.665-12.019,26.784-26.561,26.784  c-14.69,0-26.561-12.119-26.561-26.784C166.932,410.168,178.802,398.196,193.493,398.196 M254.477,397.747  c14.541,0,26.561,11.973,26.561,26.787s-12.02,26.784-26.561,26.784c-14.689,0-26.56-11.97-26.56-26.784  S239.788,397.747,254.477,397.747 M286.528,373.206c14.541,0,26.561,12.122,26.561,26.787c0,14.814-12.02,26.784-26.561,26.784  c-14.689,0-26.56-11.97-26.56-26.784C259.968,385.328,271.838,373.206,286.528,373.206"
   id="path16400"
   stroke-width="7.6588"
   stroke="#000000"
   fill="none" />
<path
   clip-rule="evenodd"
   d="M215.898,268.308h6.677v1.496h-2.374v7.933h-1.929v-7.933h-2.375V268.308  L215.898,268.308z M223.763,268.308h2.819l2.225,6.584c0,0.149,0.149,0.301,0.149,0.599c0,0.3,0.147,0.599,0.147,0.896  c0-0.297,0-0.596,0-0.896c0.148-0.298,0.148-0.449,0.298-0.599l2.227-6.584h2.817v9.429h-1.779v-6.885c0-0.3,0-0.601,0-0.898  s0-0.599,0.148-0.898c-0.148,0.3-0.148,0.601-0.298,0.898c0,0.149,0,0.449-0.149,0.449l-2.521,7.334h-1.632l-2.523-7.185  c-0.147-0.149-0.147-0.449-0.295-0.748c0-0.148,0-0.449-0.149-0.749c0.149,0.601,0.149,1.048,0.149,1.196c0,0.301,0,0.449,0,0.601  v6.885h-1.632V268.308L223.763,268.308z"
   id="path16402"
   fill-rule="evenodd" />
<path
   fill-rule="evenodd"
   clip-rule="evenodd"
   d="M50.747,299.285l6.528,18.257H44.07L50.747,299.285L50.747,299.285z   M41.844,323.525l-3.413,9.578h-8.013l15.729-40.552h9.645l15.433,40.552h-8.459l-3.413-9.578H41.844L41.844,323.525z   M402.862,328.167c2.227,0,3.857-1.198,5.046-3.892c1.187-2.544,1.78-6.287,1.78-11.223c0-5.24-0.594-9.129-1.78-11.824  c-1.188-2.693-2.819-4.038-5.046-4.038s-4.007,1.345-5.045,4.038c-1.188,2.547-1.781,6.436-1.781,11.523  c0,4.939,0.593,8.828,1.781,11.523C399.004,326.819,400.635,328.167,402.862,328.167L402.862,328.167z M402.807,334  c4.883-0.042,8.392-1.836,10.738-5.387c2.521-3.591,3.708-8.828,3.708-15.861c0-6.883-1.187-12.121-3.708-15.713  c-2.376-3.592-5.936-5.386-10.684-5.386c-4.749,0-8.311,1.794-10.833,5.386c-2.373,3.592-3.708,8.83-3.708,15.713  c0,7.033,1.335,12.271,3.708,15.861C394.504,332.136,397.979,333.931,402.807,334L402.807,334z M432.983,327.117h17.213v5.986  h-26.709v-6.135c6.826-6.285,11.574-11.074,14.096-14.518c2.672-3.291,3.857-6.283,3.857-8.676c0-1.797-0.593-3.145-1.928-4.192  c-1.188-1.048-2.82-1.497-4.898-1.497c-1.481,0-2.966,0.149-4.6,0.75c-1.631,0.449-3.264,1.196-4.895,2.095l-0.444-6.733  c2.075-0.75,4.153-1.348,6.081-1.797c1.93-0.449,3.711-0.747,5.342-0.747c3.857,0,7.122,1.048,9.498,3.291  c2.375,2.095,3.711,4.79,3.711,8.081c0,3.293-1.336,6.733-3.711,10.474C443.074,317.089,438.918,321.731,432.983,327.117  L432.983,327.117z M367.844,328.167c2.225,0,3.857-1.198,5.044-3.892c1.187-2.544,1.78-6.287,1.78-11.223  c0-5.24-0.594-9.129-1.78-11.824c-1.187-2.693-2.819-4.038-5.044-4.038c-2.227,0-4.009,1.345-5.047,4.038  c-1.186,2.547-1.779,6.436-1.779,11.523c0,4.939,0.594,8.828,1.779,11.523C363.985,326.819,365.618,328.167,367.844,328.167  L367.844,328.167z M367.976,334.001c4.681-0.034,8.2-1.831,10.552-5.389c2.521-3.591,3.709-8.828,3.709-15.861  c0-6.883-1.188-12.121-3.709-15.713c-2.375-3.592-5.938-5.386-10.684-5.386c-4.751,0-8.311,1.794-10.835,5.386  c-2.373,3.592-3.706,8.83-3.706,15.713c0,7.033,1.333,12.271,3.706,15.861c2.495,3.551,6.006,5.348,10.674,5.389  C367.781,334.001,367.878,334.001,367.976,334.001L367.976,334.001z M211.745,317.542l-6.53-18.257l-6.825,18.257H211.745  L211.745,317.542z M210.111,292.551l15.58,40.552h-8.606l-3.264-9.578h-17.657l-3.413,9.578h-7.865l15.581-40.552H210.111  L210.111,292.551z M231.477,292.551h8.016v17.656l14.688-17.656h9.201l-16.619,18.854l18.104,21.697h-9.941l-15.432-19.453v19.453  h-8.016V292.551L231.477,292.551z M272.878,292.551h24.482v5.835h-16.618v10.773h15.876v5.986h-15.876v11.822h17.211v6.135h-25.075  V292.551L272.878,292.551z M328.52,327.117h17.361v5.986h-26.855v-6.135c6.973-6.285,11.572-11.074,14.243-14.518  c2.522-3.291,3.857-6.283,3.857-8.676c0-1.797-0.739-3.145-1.927-4.192c-1.338-1.048-2.969-1.497-5.046-1.497  c-1.484,0-2.969,0.149-4.6,0.75c-1.634,0.449-3.265,1.196-4.897,2.095l-0.444-6.733c2.077-0.75,4.155-1.348,6.084-1.797  s3.708-0.747,5.339-0.747c3.86,0,7.125,1.048,9.498,3.291c2.521,2.095,3.711,4.79,3.711,8.081c0,3.293-1.189,6.733-3.711,10.474  C338.611,317.089,334.456,321.731,328.52,327.117L328.52,327.117z M77.752,292.551h7.865v34.417h16.174v6.135h-24.04V292.551  L77.752,292.551z M104.167,292.551h29.378v6.284h-10.832v34.268h-7.865v-34.268h-10.682V292.551L104.167,292.551z M155.21,292.551  h7.864v34.417h16.174v6.135H155.21V292.551L155.21,292.551z M24.484,293.599l-0.594,6.283c-1.483-0.598-3.116-1.198-4.452-1.496  c-1.484-0.301-2.969-0.449-4.452-0.449c-2.226,0-3.859,0.298-5.044,1.199c-1.188,0.746-1.781,1.794-1.781,3.291  c0,1.794,2.226,3.74,6.528,5.983c0.297,0.151,0.742,0.303,0.891,0.449c4.006,2.095,6.826,4.04,8.309,5.837  c1.483,1.797,2.077,4.041,2.077,6.585c0,3.74-1.335,6.885-4.154,9.277c-2.819,2.393-6.53,3.442-11.129,3.442  c-1.929,0-5.193-0.598-9.645-1.945c-0.444-0.149-0.741-0.301-1.039-0.449l0.742-6.885c2.227,1.049,4.155,1.945,5.638,2.395  c1.634,0.449,2.968,0.75,4.303,0.75c2.078,0,3.857-0.602,5.194-1.5c1.334-1.047,1.928-2.393,1.928-3.889  c0-1.945-2.076-4.041-6.379-6.436c-0.298-0.148-0.593-0.298-0.742-0.447c-0.149,0-0.444-0.15-0.89-0.449  c-3.116-1.647-5.342-3.293-6.677-4.641c-0.892-1.045-1.632-2.095-2.078-3.291c-0.444-1.346-0.741-2.695-0.741-4.041  c0-3.439,1.335-6.283,4.005-8.379c2.672-2.094,6.231-3.142,10.684-3.142c1.781,0,4.303,0.446,7.567,1.345  C23.446,293.298,24.186,293.447,24.484,293.599L24.484,293.599z"
   id="path16404" />
</svg>