<?xml version="1.0" encoding="UTF-8" standalone="no"?>
<!-- Created with Inkscape (http://www.inkscape.org/) -->

<svg
   xmlns:dc="http://purl.org/dc/elements/1.1/"
   xmlns:cc="http://creativecommons.org/ns#"
   xmlns:rdf="http://www.w3.org/1999/02/22-rdf-syntax-ns#"
   xmlns:svg="http://www.w3.org/2000/svg"
   xmlns="http://www.w3.org/2000/svg"
   xmlns:sodipodi="http://sodipodi.sourceforge.net/DTD/sodipodi-0.dtd"
   xmlns:inkscape="http://www.inkscape.org/namespaces/inkscape"
   width="284"
   height="351"
   id="svg2"
   version="1.1"
   inkscape:version="0.48.4 r9939"
   sodipodi:docname="New document 1">
  <defs
     id="defs4">
    <clipPath
       id="Clip1">
      <path
         id="path3058"
         transform="translate(0, 0)"
         d="M0 0 L370.916 0 L370.916 460 L0 460 L0 0 Z" />
    </clipPath>
    <clipPath
       id="Clip0">
      <path
         id="path3055"
         transform="translate(0, 0)"
         d="M0 0 L370.916 0 L370.916 460 L0 460 L0 0 Z" />
    </clipPath>
  </defs>
  <sodipodi:namedview
     id="base"
     pagecolor="#ffffff"
     bordercolor="#666666"
     borderopacity="1.0"
     inkscape:pageopacity="0.0"
     inkscape:pageshadow="2"
     inkscape:zoom="1.4"
     inkscape:cx="139.71464"
     inkscape:cy="125.67204"
     inkscape:document-units="px"
     inkscape:current-layer="layer1"
     showgrid="false"
     inkscape:window-width="1216"
     inkscape:window-height="1078"
     inkscape:window-x="989"
     inkscape:window-y="189"
     inkscape:window-maximized="0" />
  <metadata
     id="metadata7">
    <rdf:RDF>
      <cc:Work
         rdf:about="">
        <dc:format>image/svg+xml</dc:format>
        <dc:type
           rdf:resource="http://purl.org/dc/dcmitype/StillImage" />
        <dc:title></dc:title>
      </cc:Work>
    </rdf:RDF>
  </metadata>
  <g
     inkscape:label="Layer 1"
     inkscape:groupmode="layer"
     id="layer1"
     transform="translate(0,-701.36218)">
    <g
       id="Background"
       transform="matrix(0.76735236,0,0,0.76735236,-0.33416493,700.31405)">
      <g
         clip-path="url(#Clip0)"
         id="Layer_1">
        <g
           clip-path="url(#Clip1)"
           id="Group1">
          <path
             id="path3063"
             transform="translate(280.999,295.942)"
             d="m 52.6901,18.9673 c -0.2582,1.8799 -1.6692,3.1518 -3.0245,4.3002 -2.0787,1.7461 -5.1204,2.9942 -7.7182,3.951 -0.4578,-7.2748 5.7163,-11.7514 7.1992,-18.23276 4.5523,1.49136 3.103,6.49436 3.5435,9.98156 l 0,0 z M 11.619,22.9557 C 13.8727,17.9045 17.1555,12.7921 18.0154,6.95644 18.0465,6.76543 18.0465,6.60707 18.0465,6.43483 18.0293,6.35809 17.9982,6.29116 17.9509,6.22422 17.905,6.15239 17.8332,6.07076 17.7882,6.00872 17.637,5.77445 17.489,5.60221 17.3377,5.38181 17.2757,5.31488 17.2111,5.23814 17.149,5.16631 17.0697,5.12794 17.0075,5.0806 16.9429,5.03244 16.7083,4.91735 16.4541,4.89367 16.2342,4.75 16.1337,4.68796 16.0307,4.61123 15.8967,4.56797 15.7626,4.56307 15.6048,4.55328 15.4634,4.59164 c -0.0622,0.01877 -0.1578,0 -0.2035,0.03347 C 9.7136,7.23642 5.30188,11.3407 2.67301,16.6491 0,20.782 2.0959,25.5646 4.62504,29.544 c 0.89836,1.5877 6.30076,1.6212 8.94926,0.4882 0.4243,-0.1911 3.7022,-2.124 4.8923,-3.133 3.5967,-3.0374 7.9463,-5.505 11.0902,-9.5041 2.3468,-3.9941 0.1798,-8.31716 -1.5515,-12.11043 4.9765,0.24897 9.7446,0.17224 14.0598,2.58765 0.417,0.87503 0.6131,0.55996 0.6613,1.47341 -2.4335,6.16547 -9.2868,9.40367 -9.5868,17.11357 0.0793,8.2363 3.3073,8.0258 4.6005,7.6764 C 45.751,30.6297 55.7326,26.0666 59.1568,18.156 59.8754,11.7513 54.4076,7.40866 49.6803,4.73531 l 0,-0.12408 c 4.948,-1.53054 27.0595,-2.12807 21.7904,4.44801 -3.6016,3.40066 -7.8621,6.30906 -9.2803,11.59376 -0.4888,3.2905 0.2517,6.6863 2.0239,9.4559 0.1651,0.2677 0.5608,0.4735 0.7807,0.5265 0.2207,0.0482 0.4258,0.0816 0.654,0.1535 0.2345,0.0621 0.4479,0.0482 0.685,0.0147 0.0481,0 0.1103,-0.0523 0.165,-0.0768 0.0311,0 0.0793,0 0.103,-0.0098 0.0622,-0.062 0.1554,-0.1338 0.2208,-0.1052 1.2114,0.5689 2.2847,-0.6506 3.5035,-0.4686 6.8468,-2.7451 12.9439,-5.8683 17.7308,-11.522 1.8605,-3.3859 1.8295,-7.9253 -0.486,-11.51293 C 84.8914,4.18595 80.7788,6.44789 77.4862,7.13194 77.2345,5.75894 76.2813,4.4341 75.0772,3.89861 66.1443,0.928121 55.4849,1.493 45.8842,1.89461 c -0.031,0 -0.031,-0.04816 -0.031,-0.04816 C 45.8196,1.74605 45.791,1.68401 45.7354,1.62197 45.7182,1.5885 45.6872,1.55014 45.6709,1.51667 45.6161,1.41627 45.5057,1.30606 45.388,1.2873 45.0332,1.25872 44.6867,1.32076 44.3319,1.30606 c -0.0147,0 -0.0384,-0.04816 -0.0384,-0.04816 -0.1268,0 -0.1823,-0.12407 -0.2608,-0.2057 -0.0384,-0.03347 -0.1177,-0.03347 -0.1488,0 C 43.7425,1.18118 43.6297,1.31995 43.5054,1.46361 42.7486,2.3101 41.9131,3.0513 41.4414,4.1035 L 25.9707,2.29541 24.1437,0.707725 C 22.7884,0 21.102,1.33464 19.9217,1.58769 c -1.1975,0.1102 -1.3864,1.51585 -1.4559,2.46764 -0.4193,2.62602 2.6223,0.79426 3.3311,2.76479 0.5199,1.61216 0.6465,3.21458 0.7087,4.95978 0.5363,6.2798 -5.5774,9.4273 -9.958,11.9236 -0.134,0.0816 -0.3303,0 -0.4643,-0.1005 -0.0237,-0.0146 -0.0695,-0.0146 -0.103,-0.0236 -0.0793,-0.0285 -0.1553,-0.0481 -0.2272,-0.0955 -0.0311,-0.0286 -0.103,-0.0147 -0.1194,-0.062 -0.0147,-0.0433 0.0172,-0.1005 -0.0311,-0.1486 -0.0147,-0.0236 -0.031,-0.0236 -0.031,-0.0334 -0.0556,-0.0972 0.0163,-0.1976 0.0474,-0.2842 l 0,0 z m 69.6969,-4.7108 c -2.7564,2.9795 -6.6409,5.5769 -10.6332,6.883 -0.5845,-5.185 3.2836,-10.1351 5.9533,-14.3634 2.2365,-0.5453 3.8126,0.5167 5.0824,1.1003 1.6759,0.8318 1.0323,4.5002 -0.4025,6.3801 l 0,0 z"
             style="fill:#161413;fill-rule:evenodd;stroke:none"
             inkscape:connector-curvature="0" />
          <path
             id="path3065"
             transform="translate(229.948,281.253)"
             d="m 0.715254,63.3679 0.033515,0.0286 c 0.778201,1.5208 1.769751,2.9272 2.938681,4.1949 2.22015,2.3199 5.34768,0.0237 8.23805,0.4163 0,0 39.3546,-5.5434 44.7259,-5.821 3.4823,-0.3779 9.3588,-1.7933 13.6119,-3.439 2.2366,-0.4163 4.8834,0 7.1199,-0.4302 0.6948,-0.1673 0.8501,-0.0187 1.5376,-0.191 0.9368,-0.3298 2.1024,-1.32 1.5833,-1.9656 C 79.8093,55.343 78.5742,54.7307 77.4486,54.3193 77.3628,54.2426 76.7538,53.9275 76.5887,53.9275 76.3303,53.7602 76.0597,53.6786 75.8105,53.5161 75.463,53.4394 75.1157,53.4492 74.769,53.2818 72.8701,52.8133 73.1146,52.8271 71.2099,52.3537 56.9988,50.2297 37.4785,51.45 22.2522,53.2198 26.2224,48.8151 31.0821,43.5581 35.9982,39.2824 42.6774,32.4044 52.9967,24.7761 50.0033,12.9284 49.0983,10.3645 42.536,0 16.8252,11.3546 c -3.0801,1.6547 -6.6171,2.7403 -8.82988,5.7443 -0.48147,0.6456 -0.71853,1.7215 -0.08828,2.4154 0.11934,0.182 0.18228,0.6073 0.23705,0.9371 0.18227,1.0758 1.08723,0.8179 1.60708,1.5689 0.12668,0.1821 0.28533,0.3159 0.45783,0.44 1.3389,1.1427 3.2451,3.1427 5.1824,1.8032 C 22.356,12.646 39.5981,8.68046 43.0011,14.2337 c 0.7569,1.4636 0,2.937 -0.8738,4.439 C 31.0371,32.8639 15.9587,44.7638 4.8997,57.391 2.96973,57.7976 2.14331,58.9314 1.26702,60.1509 1.2286,60.2032 1.14931,60.2514 1.11825,60.2995 c -0.04823,0.0955 -0.103,0.191 -0.165119,0.2677 -0.251773,0.3633 -0.495368,0.6359 -0.747138,0.9902 -0.064577,0.0816 -0.064577,0.2057 -0.1267019,0.3159 -0.0792911,0.1436 -0.062125,0.3395 0,0.502 0.0171662,0.0482 0.0621249,0.1053 0.1103529,0.1485 0.18801,0.2891 0.360489,0.5568 0.52561,0.8441 l 0,0 z"
             style="fill:#161413;fill-rule:evenodd;stroke:none"
             inkscape:connector-curvature="0" />
          <path
             id="path3067"
             transform="translate(52.7024,300.153)"
             d="m 12.3425,23.5754 c -0.4145,-0.3968 -0.3303,-0.9805 -0.3818,-1.4735 2.024,-6.1744 5.4866,-11.886 7.8179,-17.81637 0.0172,-0.04816 0.0564,-0.0955 0.0621,-0.12408 0.0597,-0.15754 0.036,-0.3159 0.0082,-0.47344 0,-0.03347 -0.0147,-0.06204 -0.0147,-0.09551 -0.0253,-0.13877 -0.0957,-0.24407 -0.103,-0.37794 -0.0286,-0.20081 -0.0286,-0.39182 0,-0.58855 0,0 0,-0.02368 0.0073,-0.03347 0.0156,-0.05224 -0.0073,-0.08571 0,-0.13387 0.0328,-0.09061 0.0957,-0.15754 0.1268,-0.23428 0.0188,-0.04816 0.0343,-0.12407 0,-0.19101 -0.0254,-0.04326 -0.0801,-0.08571 -0.1112,-0.13877 0,-0.01469 0,-0.04816 -0.0156,-0.06204 C 19.6797,1.75095 19.6323,1.67503 19.5538,1.61707 19.423,1.53136 19.3168,1.43994 19.222,1.33464 19.0103,1.1526 18.8672,0.884862 18.6081,0.760784 18.4944,0.708541 18.3563,0.684052 18.2778,0.588547 18.1315,0.578751 17.9786,0.626912 17.8601,0.555078 17.4939,0.334679 17.301,0 16.8841,0.506917 c -0.0171,0.018775 -0.0842,0 -0.1218,0 C 16.7697,0.492224 16.7451,0.458756 16.7369,0.458756 16.6552,0.401616 16.5678,0.401616 16.4787,0.353455 16.4239,0.329782 16.4149,0.257948 16.3168,0.329782 16.2065,0.415493 16.1157,0.506917 16.0127,0.597525 L 13.5752,2.33378 C 5.71795,11.5987 0,32.428 14.4621,26.2291 c 5.234,-2.6114 9.2664,-6.2756 13.6503,-9.8723 -1.308,4.6015 -2.4139,8.3801 -3.8828,13.0338 -2.4728,9.0347 -5.597,18.7877 -3.7112,27.5833 0.8395,1.191 0.8068,3.8692 2.5921,3.7166 1.0234,-1.0375 3.2566,-0.2441 3.1471,-2.4922 -1.4297,-2.9753 2.1425,-3.817 2.1425,-6.6241 2.2455,-13.4836 6.6097,-28.047 9.452,-41.062 L 39.6055,8.00619 C 39.5818,6.48544 37.83,6.02097 37.2104,4.61531 35.032,5.1508 32.4995,3.67332 30.7469,6.18912 30.8311,6.81604 31.239,7.54254 30.9325,8.06904 26.4424,14.1961 20.3737,19.3428 13.7689,23.6039 c -0.0793,0.0481 -0.1692,0.0481 -0.2477,0.0955 -0.0597,0.0482 -0.1464,0.0621 -0.206,0.0767 -0.0948,0.0482 -0.2084,0.0188 -0.3033,-0.0383 -0.0825,-0.0572 -0.2444,-0.0572 -0.3221,-0.0858 -0.0997,-0.0481 -0.2027,-0.0334 -0.2992,-0.0481 -0.0171,0 -0.0408,-0.0138 -0.0481,-0.0285 l 0,0 z"
             style="fill:#161413;fill-rule:evenodd;stroke:none"
             inkscape:connector-curvature="0" />
          <path
             id="path3069"
             transform="translate(0,265.885)"
             d="m 54.3635,52.1471 c -0.717,2.6399 -0.9769,4.8121 -2.5096,6.9589 -4.3945,6.639 -12.2762,12.3114 -18.2868,17.3479 -4.7092,3.9647 -11.6926,11.3405 -15.9939,15.6975 -0.4095,0.5831 -0.9997,0.2826 -0.855,-0.7562 0,-0.0147 0.0236,-0.0147 0.0326,-0.0147 -0.0081,-0.0719 0.0238,-0.1487 0.036,-0.2205 0.0229,-0.1625 0.0229,-0.3161 0,-0.4729 0,-0.0286 -0.0678,-0.062 -0.0752,-0.1004 -0.0392,-0.1193 -0.0875,-0.2295 -0.17,-0.3161 -0.0384,-0.0523 -0.0311,-0.1339 0,-0.196 6.4193,-11.5841 16.4631,-21.6955 23.6206,-33.3423 1.934,-2.9035 3.4495,-5.4243 2.4727,-8.1744 -2.0632,-7.2225 -19.6413,-0.9901 -22.9961,0.1241 -0.0702,0.0237 -0.1422,-0.0146 -0.2337,0.0335 -0.0311,0.0432 -0.121,0.0432 -0.1537,0 -0.0548,-0.0384 -0.1104,-0.0816 -0.17,-0.1102 -0.4684,-0.2539 -1.169,0.9754 -1.984,0.8947 -0.0155,0 -0.031,-0.0286 -0.031,-0.0286 0,-0.0482 -0.0238,-0.0719 -0.0393,-0.1103 -0.0073,-0.0432 -0.0392,-0.0718 -0.0482,-0.1289 -0.0278,-0.0286 -0.0825,-0.0286 -0.1365,-0.0286 -0.1782,0 -0.3556,0 -0.5329,0.0147 -0.2682,0.0335 -0.5314,0.0719 -0.7758,0.0335 -0.6303,-0.1102 0.0155,0.44 -0.4439,0.5787 l -0.0155,0.0188 c -0.4774,0 -0.9098,-0.1388 -1.388,-0.0482 -0.3548,0.0621 -0.7087,-0.0334 -1.0618,0.0621 -0.4456,0.1151 -0.8911,0.1723 -1.3325,0.2057 -0.7667,0.062 -1.56288,0.0906 -2.33127,0 C 8.3632,50.0069 7.8302,49.8917 7.24492,49.8011 6.82312,49.7105 6.46917,49.5619 6.09069,49.4232 5.84628,49.2942 5.6689,49.1841 5.46781,49.0069 5.34601,48.9498 5.19561,48.9832 5.08199,48.9212 3.21905,47.8788 1.14359,45.5352 0.734056,42.9949 0,33.9643 7.19995,27.7278 12.1152,22.0309 19.9298,14.3929 29.2134,8.20377 38.4676,2.25786 38.6768,2.1142 38.8771,2.0138 39.102,1.89461 39.3063,1.78442 39.5237,1.72237 39.7477,1.68401 39.9488,1.63585 40.1262,1.5983 40.3223,1.55014 40.4336,1.50198 40.4997,1.42117 40.6109,1.36811 40.7246,1.34443 40.8317,1.30606 40.9412,1.2824 41.2093,1.23424 41.4333,1.11016 41.6776,1.03832 42.272,0.919146 42.8548,1.17219 43.427,0.990164 44.2738,0.722418 45.1354,0.794252 45.9978,0.707725 46.176,0.684052 46.3534,0.525692 46.5569,0.478347 46.758,0.463654 46.9354,0.444879 47.1365,0.392636 c 0.4218,-0.062038 0.7521,-0.277539 1.1697,-0.3542703 0.1153,-0.0236724 0.224,-0.0383657 0.3393,0 0.1055,0.0481613 0.2166,0.1101993 0.3457,0.1387703 0.2527,0.018774 0.4921,-0.028571 0.7366,0.066935 l 0,0.038366 c 0.0237,0.023672 0.0637,0 0.0637,0.014693 0,-0.014693 -0.0392,0.009795 -0.0637,-0.052243 0.0637,0.148565 0.134,0.282437 0.1577,0.391821 0.1292,1.085662 0.0826,2.157452 0.1962,3.238232 0,0.09061 0.0237,0.19101 0.0482,0.3012 0.1292,0.41142 0.3303,0.7559 0.4685,1.18118 0,0.06204 0.0392,0.13877 0.1029,0.20571 0.0278,0.02857 0.0278,0.12407 0.0515,0.17223 l 0.0393,0 0,0.04816 c 0.0229,0.0147 0.0465,0.04327 0.0858,0.04327 1.9136,0.1102 0.6057,2.52563 0.9687,3.80716 1.0013,2.53465 -0.2322,3.57295 -5.2652,8.07405 -10.9143,5.0748 -22.6665,9.6902 -32.4668,19.7101 -0.5591,0.5738 -1.7444,1.7175 -2.2365,2.8554 5.8553,0.8898 12.8436,-1.3199 18.6571,-1.6358 6.9401,-1.5355 16.8605,-1.6122 21.689,5.0552 1.3986,2.0473 2.5455,4.4725 2.0992,7.1459 -0.0074,0.062 0.1078,0.0767 0.1545,0.1338 0.031,0.0286 -0.0082,0.1005 0.0237,0.1486 0.0466,0.0767 0.0621,0.1436 0.0466,0.2204 0,0.0384 -0.0155,0.0719 -0.0311,0.1102 -0.0082,0.1102 -0.0082,0.1959 -0.0482,0.2824 -0.0499,0.1118 -0.0744,0.2931 -0.1054,0.413 l 0,0 z"
             style="fill:#161413;fill-rule:evenodd;stroke:none"
             inkscape:connector-curvature="0" />
          <path
             id="path3071"
             transform="translate(130.807,296.738)"
             d="M 45.9864,20.3803 C 50.5902,16.7691 56.3048,14.1047 58.3688,7.54254 58.6541,6.07403 59.6457,0 55.1237,0.58773 45.124,1.5632 37.5456,8.6282 37.6682,21.0252 c 0,0 -1.8156,1.5493 -2.9338,1.6359 -1.7534,0.1102 -2.7768,-1.4016 -3.1871,-2.124 C 29.2878,15.4956 27.948,7.83804 22.7451,5.65282 19.1418,5.69119 14.9868,7.77681 12.4152,10.4599 11.6983,7.73844 9.42913,4.12228 6.45936,3.57699 5.84138,3.46679 5.5422,3.6725 4.88008,4.34267 4.78199,4.43328 4.58171,4.53858 4.40433,4.60062 4.16401,4.60062 3.79371,4.9304 3.86401,5.21284 5.70323,12.3252 0,20.3175 1.30789,27.7123 c 1.66349,1.76 0.99973,4.941 3.74058,4.4529 1.16239,0.062 2.33296,-0.5551 3.12427,-1.1053 3.77326,-4.3378 4.86366,-10.2305 4.99776,-16.205 1.7771,-2.1281 5.3019,-5.15163 6.9711,-4.0896 2.5561,6.8446 2.0247,17.0368 9.7135,19.4955 3.7635,0.9901 6.2265,-1.3485 8.6133,-3.3289 0.8469,2.0709 1.8392,3.2954 3.8795,3.5297 3.7922,0.9134 8.9289,-2.7028 13.5081,-6.4806 2.8267,-2.3721 6.1202,-5.3328 8.9894,-7.6005 -1.1494,5.0365 -0.3474,9.7237 1.961,14.0664 0.4954,1.2579 3.6474,1.0089 5.2545,-0.6123 2.1098,-3.0513 5.1204,-5.132 7.316,-7.4567 1.585,-1.6547 3.0823,-3.7167 4.8137,-4.8309 -0.392,5.9785 -7.0404,24.9957 -7.2079,31.2044 -0.1799,6.1744 0.2852,12.9954 4.1215,17.5968 1.0536,0 2.1815,-0.1486 3.151,-1.1338 L 84.238,65.1907 c -0.0171,-0.0858 -0.0171,-0.1624 -0.0792,-0.258 -0.0172,-0.0146 0,-0.0718 0,-0.0955 -0.0172,-0.0383 -0.0172,-0.0718 -0.031,-0.1101 -0.1103,-0.2107 -0.2679,-0.378 -0.3782,-0.5886 0,-0.0098 0,-0.0335 0,-0.0482 -0.0482,-0.0383 -0.0645,-0.1004 -0.0719,-0.1485 -0.0384,-0.1339 -0.0384,-0.2825 0,-0.4163 0.0237,-0.0956 0.0237,-0.2008 0.0548,-0.2776 0.0481,-0.062 0.0792,-0.1191 0.1102,-0.1575 0.0311,-0.0147 0.0482,-0.0621 0.0792,-0.0767 0.0172,-0.0147 0,-0.0482 0,-0.0817 -0.0931,-4.9214 2.8137,-10.0347 2.5703,-15.3152 1.0389,-8.5948 8.1446,-30.2902 5.4812,-38.18213 0,-0.02851 0.0384,-0.11507 0.0792,-0.18204 C 92.1457,9.15226 92.1555,9.0282 92.2568,8.90815 92.274,8.89353 92.2878,8.84617 92.2878,8.83147 92.336,8.46821 92.2249,8.12863 92.06,7.80783 92.0118,7.71233 91.8778,7.63559 91.7921,7.54009 91.73,7.46825 91.699,7.38254 91.6124,7.33438 91.4931,7.28622 91.4139,7.22418 91.3135,7.14745 91.186,7.06582 91.1068,6.94174 91.0137,6.81767 90.9182,6.66013 90.87,6.51646 90.7842,6.36789 90.7295,6.28218 90.6192,6.21932 90.5261,6.24872 90.3848,6.29688 90.2574,6.26748 90.1161,6.28218 88.1927,6.38259 86.0496,4.5647 84.1743,6.54992 83.4098,14.0068 77.7633,17.6556 72.7369,21.4007 71.7143,22.204 72.0307,19.3249 71.9726,18.4253 71.9268,17.5307 72.1549,13.5513 72.4541,12.4852 72.7369,11.4902 73.5895,7.93191 73.345,6.68379 73.2969,6.41605 73.2732,6.18667 73.1627,5.96628 73.1007,5.87077 72.983,5.8422 72.8947,5.82261 72.8562,5.79404 72.8015,5.77036 72.7843,5.68874 72.7361,5.63649 72.6666,5.63649 72.6021,5.63649 72.329,5.58834 72.0437,5.57446 71.7756,5.66506 71.6579,5.68874 71.5238,5.77036 71.4143,5.77036 71.0047,5.82261 70.6263,5.8422 70.2241,5.93771 70.0418,5.98097 69.8628,6.09117 69.6805,6.17198 69.0821,6.41605 68.4519,6.40625 67.8388,6.38259 65.3963,6.29688 67.1848,8.90815 66.2465,10.051 60.7337,15.312 51.2138,22.9263 48.5351,23.2569 45.9864,23.3214 45.9864,20.3803 45.9864,20.3803 l 0,0 z M 51.7918,5.4814 c 0,0 4.513,5.0365 -7.2507,12.7129 0,0 0.7848,-10.74727 7.2507,-12.7129 l 0,0 z"
             style="fill:#161413;fill-rule:evenodd;stroke:none"
             inkscape:connector-curvature="0" />
          <path
             id="path3073"
             transform="translate(90.7752,272.992)"
             d="m 35.6597,34.5512 c 0.5641,3.2048 0.7325,6.4283 1.7183,9.4796 -1.0178,1.0089 -2.1204,1.0856 -3.2346,1.0522 C 33.2966,43.9541 31.3788,42.8063 29.9958,41.9696 23.9533,48.704 11.6934,57.3086 8.44324,57.3086 6.25092,58.0261 3.33186,54.1659 2.81524,52.3104 0,35.1781 23.1734,29.7489 27.353,29.9694 27.0383,21.4317 29.3696,8.28781 34.3445,1.20974 35.0295,0.0759151 36.1837,0.124076 37.145,0 41.6695,3.85453 36.7592,30.5954 35.6597,34.5512 l 0,0 z m -8.5593,5.8446 C 22.0364,38.5543 16.9634,41.8595 13.3789,45.4323 11.7996,47.4176 9.90488,49.522 9.88928,52.4157 16.5727,50.9138 22.6585,45.5564 27.1004,40.3958 l 0,0 z"
             style="fill:#161413;fill-rule:evenodd;stroke:none"
             inkscape:connector-curvature="0" />
          <path
             id="path3075"
             transform="translate(118.022,399.304)"
             d="M 56.7708,32.5815 C 55.3182,45.4813 44.3646,55.5111 31.065,55.5111 16.7713,55.5111 5.18743,43.941 5.18743,29.6689 5.18743,18.7347 11.9852,9.38901 21.5835,5.61527 21.8435,4.19003 21.9808,2.72152 21.9808,1.22444 21.9808,0.817927 21.9734,0.406513 21.9497,0 9.24438,3.89371 0,15.6973 0,29.6689 c 0,17.1323 13.907,31.0273 31.0642,31.0273 15.8704,0 28.9632,-11.9048 30.8262,-27.2584 -1.7477,-0.1486 -3.4578,-0.4302 -5.1196,-0.8563 l 0,0 z"
             style="fill:#fec133;fill-rule:evenodd;stroke:none"
             inkscape:connector-curvature="0" />
          <path
             id="path3077"
             transform="translate(147.707,397.951)"
             d="M 0.00735691,5.21774 C 0.457763,5.19407 0.917161,5.17448 1.37983,5.17448 13.8318,5.17448 24.223,13.961 26.6957,25.6651 28.4418,26.296 30.272,26.727 32.1677,26.9564 30.1739,11.7366 17.1571,0 1.37983,0 0.917978,0 0.457763,0.0146933 0,0.0334679 0.0702993,0.87017 0.110353,1.71258 0.110353,2.57785 c 0,0.88894 -0.0400537,1.76401 -0.10299609,2.63989 l 0,0 z"
             style="fill:#fec133;fill-rule:evenodd;stroke:none"
             inkscape:connector-curvature="0" />
          <path
             id="path3079"
             transform="translate(84.3616,369.506)"
             d="m 32.3295,59.4669 c 0,-0.8947 0.0384,-1.76 0.1136,-2.6359 -0.4528,0.0237 -0.9139,0.0433 -1.3814,0.0433 -14.2814,0 -25.87753,-11.5799 -25.87753,-25.8519 0,-14.268 11.59613,-25.83732 25.87753,-25.83732 14.2961,0 25.8865,11.57012 25.8865,25.83732 0,10.9342 -6.8011,20.2652 -16.4002,24.0487 -0.26,1.4253 -0.4013,2.884 -0.4013,4.3958 0,0.4016 0.0155,0.8179 0.031,1.2293 C 52.8871,56.8024 62.1307,44.994 62.1307,31.0224 62.1307,13.89 48.2204,0 31.0601,0 13.9021,0 0,13.89 0,31.0224 c 0,17.1322 13.9021,31.0272 31.0601,31.0272 0.4683,0 0.9204,-0.0147 1.3814,-0.0335 -0.0646,-0.8416 -0.112,-1.6979 -0.112,-2.5492 l 0,0 z"
             style="fill:#024fa2;fill-rule:evenodd;stroke:none"
             inkscape:connector-curvature="0" />
          <path
             id="path3081"
             transform="translate(151.925,369.506)"
             d="M 5.11223,28.1 C 6.57462,15.2051 17.5274,5.18508 30.8197,5.18508 c 14.2937,0 25.8865,11.57012 25.8865,25.83732 0,10.9342 -6.8059,20.2652 -16.3904,24.0487 -0.2607,1.4253 -0.4169,2.884 -0.4169,4.3958 0,0.4016 0.0147,0.8179 0.0286,1.2293 C 52.6419,56.8024 61.8879,44.994 61.8879,31.0224 61.8879,13.89 47.9785,0 30.8189,0 14.946,0 1.87029,11.895 0,27.2388 1.74032,27.3923 3.45856,27.6886 5.11223,28.1 l 0,0 z"
             style="fill:#161413;fill-rule:evenodd;stroke:none"
             inkscape:connector-curvature="0" />
          <path
             id="path3083"
             transform="translate(151.957,404.603)"
             d="m 32.0557,24.3696 c 0,-0.8947 0.0392,-1.76 0.1103,-2.6359 -0.4578,0.0237 -0.9089,0.0433 -1.3782,0.0433 C 18.3416,21.777 7.94382,12.9905 5.47436,1.29137 3.73322,0.66038 1.90217,0.229378 0,0 c 2.00108,15.2149 15.0179,26.9523 30.7878,26.9523 0.4693,0 0.9204,-0.0147 1.3782,-0.0335 -0.063,-0.8416 -0.1103,-1.6978 -0.1103,-2.5492 l 0,0 z"
             style="fill:#161413;fill-rule:evenodd;stroke:none"
             inkscape:connector-curvature="0" />
          <path
             id="path3085"
             transform="translate(185.343,399.304)"
             d="M 56.7651,32.5815 C 55.3166,45.4813 44.367,55.5111 31.0543,55.5111 16.7664,55.5111 5.18743,43.941 5.18743,29.6689 5.18743,18.7347 11.9836,9.38901 21.5876,5.61527 21.8394,4.19003 21.98,2.72152 21.98,1.22444 21.98,0.817927 21.9652,0.406513 21.9489,0 9.24438,3.89371 0,15.6973 0,29.6689 c 0,17.1323 13.8997,31.0273 31.0535,31.0273 15.8827,0 28.9657,-11.895 30.8336,-27.2486 -1.7501,-0.1584 -3.4577,-0.44 -5.122,-0.8661 l 0,0 z"
             style="fill:#00ae5a;fill-rule:evenodd;stroke:none"
             inkscape:connector-curvature="0" />
          <path
             id="path3087"
             transform="translate(215.027,397.95)"
             d="m 0.111171,2.57785 c 0,0.88975 -0.0310625,1.76482 -0.110353563,2.63989 C 0.458581,5.19407 0.915528,5.17448 1.37084,5.17448 13.8334,5.17448 24.232,13.961 26.6957,25.6651 28.4369,26.296 30.2638,26.727 32.1701,26.9564 30.1706,11.7366 17.1571,0 1.37002,0 0.914711,0 0.457763,0.0146933 0,0.0334679 0.0727516,0.87017 0.111171,1.71258 0.111171,2.57785 l 0,0 z"
             style="fill:#00ae5a;fill-rule:evenodd;stroke:none"
             inkscape:connector-curvature="0" />
          <path
             id="path3089"
             transform="translate(219.242,369.506)"
             d="M 30.8311,0 C 14.9582,0 1.86783,11.895 0,27.2388 1.75503,27.3923 3.45775,27.6886 5.11305,28.1 6.57626,15.2051 17.5257,5.18508 30.8311,5.18508 c 14.2806,0 25.8759,11.57012 25.8759,25.83732 0,14.272 -11.5961,25.8519 -25.8759,25.8519 C 18.3685,56.8743 7.97243,48.0788 5.50623,36.3748 3.77246,35.7438 1.93814,35.3128 0.0318799,35.0981 2.03378,50.2983 15.0547,62.0504 30.832,62.0504 47.9793,62.0504 61.8928,48.1563 61.8928,31.0232 61.8928,13.89 47.9785,0 30.8311,0 l 0,0 z"
             style="fill:#f15728;fill-rule:evenodd;stroke:none"
             inkscape:connector-curvature="0" />
          <path
             id="path3091"
             transform="translate(204.701,86.229)"
             d="M 23.4359,2.38684 C 19.7958,0 13.6986,1.59667 9.87132,1.76482 9.74464,1.77298 9.61714,1.77298 9.49284,1.74196 8.97053,1.6285 8.48253,1.74196 7.96262,1.69054 7.83837,1.56483 7.77543,1.53299 7.66344,1.3877 7.63238,1.35341 7.61767,1.28974 7.5866,1.28974 7.39042,1.25872 7.27026,1.11261 7.08143,1.14363 6.86072,1.17628 6.62612,1.17628 6.41114,1.25872 6.34901,1.27341 6.27953,1.28974 6.21495,1.30525 6.15282,1.33627 5.86754,1.41872 5.79806,1.44402 4.66264,1.87176 3.50597,2.73295 3.29998,3.84147 0,11.7946 5.03376,21.0579 9.68003,27.7433 c 4.21477,4.2194 9.92697,7.3123 15.81817,5.896 2.3566,-1.3966 2.7041,-4.736 3.0801,-6.647 C 28.4124,19.5045 30.0505,7.80701 23.4359,2.38684 l 0,0 z M 20.5838,25.47 c 0,0.1387 -0.9842,0.1387 -0.9842,-0.1291 -0.4259,-0.955 -1.1281,-1.6309 -1.8343,-2.1819 -0.1439,-0.2718 -0.4259,-0.409 -0.4259,-0.8105 -0.1439,-0.2752 -0.7087,-0.5502 -0.8428,-0.8213 -0.5607,-1.0905 -1.2768,-2.1754 -1.9782,-3.1279 -1.2596,-1.3601 -2.5365,-2.595 -3.1038,-4.0824 -0.4242,-1.2252 -0.4242,-2.7215 0.2829,-3.8178 0.9939,-1.36154 2.1196,-2.03007 3.6711,-2.56801 0.8428,-0.13714 2.0329,-0.36243 3.0417,-0.08244 0.0547,0.0155 0.0956,0.05142 0.1242,0.08244 0,0.01551 0.0098,0.03918 0.0098,0.04816 0.0482,0.05387 0.1177,0.07755 0.1488,0.14448 0.0335,0.07922 0.0482,0.16898 0,0.24003 -0.0311,0.11343 0,0.25954 -0.0311,0.36971 -0.0482,0.10616 -0.0793,0.25962 0.0171,0.32985 0.0483,0.03259 0.1105,0.06689 0.1268,0.11507 0.4642,1.06201 0.1553,1.75091 0.6539,2.95741 0.1415,0.6767 0.5583,1.2237 0.699,1.9085 -9e-4,3.8088 1.558,7.6193 0.425,11.4257 l 0,0 z"
             style="fill:#fec133;fill-rule:evenodd;stroke:none"
             inkscape:connector-curvature="0" />
          <path
             id="path3093"
             transform="translate(187.341,82.9605)"
             d="M 3.5681,2.15909 C 3.20434,2.38357 2.73268,2.65866 2.32968,2.80478 2.24385,2.8358 2.10244,3.04395 1.99944,3.06763 1.34549,3.45781 1.03079,4.0586 0.747134,4.71327 0.685009,4.7949 0.534601,4.85775 0.464303,4.9353 0.21989,5.41201 0.0694818,5.90423 0,6.4585 0.0220707,6.60462 0.234604,6.70257 0.258309,6.79563 0.716072,7.85355 1.58255,8.46331 2.66729,8.49843 2.95257,8.51558 3.20353,8.46413 3.48881,8.48373 4.23594,8.54579 4.9373,8.838 5.70896,8.80207 6.15201,8.75552 6.52803,8.78655 6.94001,8.8772 8.1351,9.02902 10.5302,9.68285 10.6013,9.69837 c 0.86,0.2 1.6455,1.10123 2.4883,0.82283 0.6637,-0.1625 1.1419,-0.96893 1.4583,-1.66115 C 14.6966,8.1319 15.1127,7.61763 15.3906,7.07154 16.083,6.00138 17.077,5.00142 16.7222,3.71249 L 16.6576,3.62842 C 16.4369,3.57454 16.2171,3.5027 16.0037,3.54271 15.9726,3.55087 15.9179,3.5974 15.886,3.5974 15.7756,3.61291 15.68,3.55821 15.5721,3.55821 15.5076,3.55821 15.4283,3.55087 15.3808,3.51985 15.3424,3.4872 15.2394,3.44965 15.2256,3.39822 15.1299,3.07497 14.9885,3.04314 14.8618,2.866 11.9713,1.6832 9.56888,0.183666 6.35555,0.0775477 c -0.07194,0 -0.11771,0.020407 -0.17493,0.020407 C 6.00078,0.106118 5.86672,0 5.68526,0.0228562 5.63948,0.0228562 5.64684,0.113464 5.61577,0.153463 5.53648,0.239174 5.45801,0.322436 5.40978,0.436716 5.33294,0.629361 5.33294,0.822002 5.26101,1.02281 5.24384,1.05383 5.22013,1.07751 5.17518,1.11343 4.78035,1.34525 4.40188,1.57708 4.03322,1.86114 3.86564,1.884 3.72423,2.02114 3.59998,2.13623 L 3.60733,2.12807 3.5681,2.15909 l 0,0 z"
             style="fill:#fec133;fill-rule:evenodd;stroke:none"
             inkscape:connector-curvature="0" />
          <path
             id="path3095"
             transform="translate(107.171,81.4308)"
             d="m 77.9676,53.1349 c 0.4128,0.2595 0.7831,0.5665 1.1853,0.7436 0.314,0.1534 0.5828,0.3853 0.9221,0.4604 0.2427,0.0547 0.479,0.1257 0.7152,0.2081 0.126,0.0482 0.2682,0.1062 0.3924,0.1772 0.2934,0.1029 0.4423,0.1029 0.7277,0.2008 0.031,0.0825 0.1487,0.1534 0.2107,0.169 0.7808,0.2285 1.7724,0.0906 2.1979,0.9134 0.0792,0.1412 0.3332,0.1927 0.4892,0.2938 1.3934,-0.0391 2.3465,1.3225 3.3168,0.3829 l 0.0147,-0.0286 c 0.0719,0 0.0858,-0.0546 0.1339,-0.0856 0.0793,-0.0825 0.1275,-0.2009 0.1895,-0.307 0,0 0.0172,-0.031 0.0409,-0.031 0.0212,-0.1845 0.0384,-0.3902 0,-0.5706 C 88.4867,55.587 88.4941,55.4964 88.4867,55.4099 87.5025,45.0413 79.775,34.352 71.693,27.0397 41.7995,0 2.09099,49.4224 2.09099,49.4224 0,51.9513 1.1534,54.7397 4.71822,53.3405 c 0.52807,0.1021 1.11336,-0.3232 1.53596,-0.4219 0.84687,-0.3061 1.69291,-0.7151 2.54059,-1.129 0.63681,-0.3028 1.48363,-0.3028 2.11793,-0.6089 0.3147,-0.2008 0.6302,-0.6147 1.0586,-0.8228 1.6945,-0.8147 3.5967,-1.1208 5.1875,-2.3436 0.6343,-0.5151 1.6945,-0.409 2.6435,-0.613 1.9063,-0.409 3.3867,-1.6359 5.1859,-2.2457 3.286,-1.1289 6.5664,-1.8448 9.7363,-3.1745 0.3165,-0.098 0.7415,-0.4016 1.0562,-0.613 0.6384,-0.2009 1.2769,0 1.9136,-0.2009 1.2646,-0.409 2.5406,-0.9159 3.8052,-1.5297 0.5354,-0.3069 1.1542,-0.4759 1.6929,-0.5151 1.2131,-0.0906 2.3329,0 3.4937,-0.4057 0.4284,-0.102 0.8469,0.2596 1.1615,0.0506 1.2769,-0.6122 2.6461,0.178 4.0259,-0.1363 0.291,-0.0547 0.5829,-0.1543 0.869,-0.1216 0.1315,0.0073 0.3008,0.0588 0.4062,-0.0237 0.0237,-0.0155 0,-0.0979 0.0082,-0.1053 0.0482,-0.0563 0.0548,-0.1494 0.1463,-0.1747 0.0859,-0.0277 0.1104,0.0792 0.1693,0.1184 0.0702,0.0392 0.1495,-0.0237 0.2247,0 0.4014,0.1616 4.4027,2.919 5.8725,3.5117 0.4684,0.1869 0.4177,0.3551 0.5623,0.7673 0.2837,0.5379 0.8477,0.6767 1.4142,0.9469 0.2722,0.1387 0.7014,-0.1371 0.9344,-0.1518 1.3144,0.1518 2.5912,0.6979 3.5722,1.5174 0.9923,0.5461 1.2768,1.6326 2.1228,2.4465 0.7006,0.5461 1.5482,0.8228 2.5406,1.2301 0.2828,0.1371 0.4201,0.8147 0.8469,1.0906 1.4141,0.6759 0.1929,0.8694 1.6054,1.2807 1.4109,0.409 2.6787,1.2245 3.9514,2.0375 0.2837,0.1339 0.5682,0.1339 0.8477,0.1339 l 0,0 z"
             style="fill:#fec133;fill-rule:evenodd;stroke:none"
             inkscape:connector-curvature="0" />
          <path
             id="path3097"
             transform="translate(202.883,94.1446)"
             d="m 59.8329,13.0354 -0.0172,0.0252 c -0.0858,0.1364 -0.3785,0.2597 -0.479,0.4041 -0.3237,0.6017 -0.4643,1.3061 -0.891,1.8603 -0.7855,0.9315 -1.4893,1.8694 -2.4261,2.7061 -0.1889,0.1461 -0.5027,0 -0.551,0.2318 -0.1512,0.3828 -0.4259,0.6995 -0.6155,1.0309 -0.0458,0.1372 0,0.2752 0.0171,0.4213 0.0237,0.2163 0.0932,0.4595 -0.0621,0.5861 -0.0957,0.0979 -0.1888,0.1567 -0.1888,0.2204 -0.0548,0.1184 -0.1578,0.1853 -0.2207,0.2163 -0.2223,0.0906 -0.4332,0.24 -0.5845,0.4367 -0.8983,1.0701 -1.7795,2.1166 -2.5291,3.3982 -0.7014,1.2302 -1.8343,2.4587 -2.7466,3.3436 -1.0872,1.0375 -3.3098,2.3207 -4.3038,3.2676 -0.1414,0.1216 -0.2346,0.2832 -0.3303,0.4057 -0.3065,0.3763 -0.7707,0.5616 -1.1108,0.9003 -0.4954,0.5633 -1.1257,0.9673 -1.621,1.5224 -0.2133,0.2204 -0.4332,0.4057 -0.5984,0.6849 -0.1512,0.2825 -0.3065,0.4987 -0.4953,0.782 -0.3475,0.4677 -0.7709,0.8057 -1.0561,1.3297 -0.1578,0.2474 -0.3614,0.4278 -0.5747,0.569 -1.473,0.9844 -2.261,2.5885 -3.6065,3.6113 -1.4755,0.7477 -3.3025,0.4759 -4.6553,0 -1.097,-0.3853 -1.7575,-0.8898 -2.8831,-1.1526 -0.994,-0.4123 -1.7027,-1.2302 -2.6942,-1.773 -0.2755,-0.1339 -0.6948,-0.2719 -0.9769,-0.2719 -0.0621,0 -0.1578,-0.613 -0.3784,-0.7664 -0.1578,-0.1543 -0.2608,-0.3625 -0.4717,-0.4572 -0.2853,-0.1371 -0.685,-0.1885 -0.994,-0.2751 -0.2828,-0.0905 -0.3858,-0.4448 -0.6466,-0.5974 -0.4243,-0.2556 -0.7398,-0.5633 -1.0079,-0.8694 -0.0523,-0.0547 -0.2207,0.0154 -0.3139,-0.031 -0.2829,-0.1388 -0.3163,-0.476 -0.4504,-0.6147 -0.4243,-0.1535 -0.8739,-0.2236 -1.2359,-0.4833 -0.1178,-0.0482 -0.314,-0.031 -0.4333,0 -0.4169,0.1372 -0.7014,-0.1257 -1.1256,-0.2628 -1.1354,-0.5477 -1.5139,-1.8913 -2.821,-2.1836 -0.237,-0.0481 -0.031,-0.3453 -0.1267,-0.4604 -0.2657,-0.3069 -0.6923,-0.2081 -1.0537,-0.4603 -0.1103,-0.1021 -0.3711,-0.1845 -0.5198,-0.169 C 10.6422,30.2918 9.5166,29.34 8.38198,28.7996 7.25636,28.2535 7.13702,28.1996 6.01795,27.7857 5.45065,27.5139 4.88499,27.5139 4.31769,27.2396 3.98499,27.078 3.70216,26.8185 3.23785,26.8544 2.74249,26.8853 0,26.9564 0.945772,30.6297 3.57545,38.1151 9.42096,49.7685 18.1332,59.306 36.7551,79.6823 68.9105,30.5677 72.5317,4.69694 72.5317,4.69694 73.099,0 70.0051,2.26848 69.4925,2.63907 69.0732,3.0513 68.5156,3.32313 68.0824,3.4619 68.1854,3.83167 68.0203,4.14431 67.901,4.36552 67.807,4.5892 67.7211,4.82102 c -0.134,0.06693 -0.2133,0.21305 -0.3302,0.3061 -0.0483,0.03266 -0.1194,0.01796 -0.1823,0.06368 -0.0646,0.03592 -0.103,0.08244 -0.1651,0.12326 -0.103,0.06694 -0.1962,0.09795 -0.2992,0.16897 -0.103,0.0547 -0.1823,0.16163 -0.2608,0.25142 -0.0237,0.02367 -0.0457,0.05632 -0.0547,0.08734 -0.0932,0.10612 -0.1799,0.17714 -0.2584,0.29877 -0.1961,0.33875 -0.4814,0.61303 -0.7667,0.87669 -1.1256,1.63666 -2.4,3.00635 -3.882,4.43245 -0.0646,0.0637 -0.0147,0.1935 -0.0147,0.28 -0.0171,0.0278 -0.0336,0.0278 -0.0507,0.0506 -0.0384,0.0873 -0.0523,0.209 -0.1414,0.28 -0.1243,0.0751 -0.2583,0.0514 -0.3858,0.0906 -0.1799,0.0792 -0.3238,0.1927 -0.479,0.3061 -0.041,0.031 -0.0483,0.1028 -0.0957,0.1339 -0.2051,0.1192 -0.3727,0.28 -0.5215,0.4645 l 0,0 z"
             style="fill:#fec133;fill-rule:evenodd;stroke:none"
             inkscape:connector-curvature="0" />
          <path
             id="path3099"
             transform="translate(188.969,98.0326)"
             d="M 5.78416,8.33436 C 6.30405,8.27065 6.855,8.14904 7.38143,8.10251 7.50077,8.09435 7.61113,8.14904 7.70513,8.087 7.83184,8.02007 8.00431,8.06986 8.13102,8.02007 8.16208,8.00292 8.17927,8.01191 8.19315,8.02823 8.29615,8.11802 8.619,7.9564 8.68851,8.07884 8.70566,8.10986 8.80783,8.10986 8.85365,8.13353 9.72095,8.44044 11.5021,9.0184 12.7454,8.9792 c 1.0798,0.59757 0.5362,-2.26112 0.6155,-3.70432 0.0172,-0.1102 -0.3473,-0.85385 -0.3302,-0.96894 0,-0.8367 0.3376,-2.07583 -0.0482,-2.29949 C 12.6661,1.93134 12.0367,2.2146 11.7539,2.12399 11.1171,1.90768 10.8727,1.27831 10.0994,1.062 9.26562,0.838336 8.40649,0.715071 7.53184,0.707725 6.77489,0.723235 6.09724,0.570588 5.37381,0.360801 4.64793,0.152647 3.93922,0 3.15121,0.231827 2.85447,0.475898 3.0335,0.625279 2.71796,0.807313 2.20789,1.13628 2.19072,1.56157 1.94713,2.08399 1.8613,2.24562 1.19999,2.3901 1.13542,2.53703 0.0792911,4.75 0,5.69527 0.0408717,7.54743 c 0.0098092,0.1698 0,0.32162 0.1029963,0.45549 0,0.03592 0,0.09959 0,0.12326 C 0.174931,8.23227 0.229699,8.39307 0.34741,8.40859 0.756944,8.46331 1.1207,8.48046 1.48282,8.65596 2.06484,8.92367 2.70407,8.86005 3.33431,8.87638 3.71278,8.86087 4.02668,8.84208 4.40515,8.80207 4.53921,8.75552 4.68063,8.64861 4.80733,8.60941 5.15474,8.46331 5.19969,8.49598 5.56182,8.35804 5.67381,8.30332 5.72858,8.34171 5.78416,8.33436 l 0,0 z"
             style="fill:#fec133;fill-rule:evenodd;stroke:none"
             inkscape:connector-curvature="0" />
          <path
             id="path3101"
             transform="translate(15.6097,0)"
             d="m 244.807,75.0041 c 0.235,0.2955 0.472,0.587 0.74,0.8857 0.299,0.2547 0.599,0.5535 0.819,0.8767 0.214,0.2677 0.592,0.378 0.655,0.7233 0.023,0.1698 0.085,0.2212 0.234,0.2212 0.096,-0.0082 0.167,-0.0359 0.244,0.0465 l 0,0.031 c 0.585,0.4294 1.135,0.9828 1.655,1.5224 l 0.017,0.0155 c 0.055,0.0237 0.072,0.0841 0.11,0.1306 0.039,0.031 0.07,0.0857 0.111,0.1135 0.031,0.0636 0.079,0.1183 0.141,0.1616 0.141,0.0857 0.283,0.1772 0.403,0.2988 0.227,0.2245 0.378,0.5199 0.653,0.7404 0.156,0.1444 0.331,0.275 0.536,0.3453 0.163,0.0465 0.314,0.1028 0.472,0.1534 0.158,0.0237 0.268,0.1388 0.426,0.1698 0.141,0.031 0.289,0.0547 0.424,0.0229 0.214,-0.0229 0.41,-0.0776 0.616,-0.1363 0.031,-0.0082 0.062,-0.0482 0.079,-0.0719 0.031,-0.0596 0.015,-0.1134 0.046,-0.169 0.017,-0.031 0.072,-0.0596 0.088,-0.0905 0.024,-0.0466 0.024,-0.1062 0.031,-0.1601 0,-0.0636 -0.062,-0.0718 -0.072,-0.1265 -0.18,-0.5739 -1.267,-5.3573 -3.292,-7.1075 l -6.459,-8.3931 c -0.804,-2.0529 -1.039,-2.5207 -1.087,-2.5925 l -1.803,-2.0726 c -2.788,-3.1737 -6.311,-5.6952 -7.767,-9.5612 -1.008,-1.2938 -2.215,-2.5444 -3.395,-3.7525 -1.253,-1.2971 -2.551,-2.6268 -3.63,-4.0513 l -0.086,-0.1534 c -0.11,-0.1927 -0.554,-0.6922 -0.664,-0.9518 -1.18,-2.0995 -6.759,-7.2797 -8.823,-8.5384 -0.424,-0.2628 -0.706,-0.6922 -1.118,-1.0392 -0.393,-0.3542 -0.754,-0.653 -1.212,-0.8611 -2.095,-0.951 -4.049,-2.084 -5.679,-3.8097 -0.222,-0.2881 -0.544,-0.4416 -0.812,-0.6938 -0.441,-0.44 -0.631,-1.0375 -1.054,-1.4245 C 198.113,18.2539 193.467,15.1944 185.021,9.53022 L 180.626,6.5687 C 179.886,6.21443 179.121,5.82587 178.318,5.42426 173.276,2.88804 167.574,0 162.341,3.37945 c -0.351,0.69956 -1.029,1.09301 -1.69,1.48157 -0.649,0.37059 -1.216,0.63507 -1.548,1.27259 -0.031,0.06612 -0.062,0.16897 0.016,0.18449 0.082,0.02367 0.161,0.05469 0.228,0.11346 0.031,0.03919 0.008,0.08571 -0.008,0.12163 l -0.015,0 c -0.028,0.05469 0,0.12571 -0.036,0.1853 -0.031,0.03918 -0.086,0.06204 -0.109,0.1102 -0.015,0.01877 -0.051,0.01877 -0.039,0.00734 -0.036,0.23673 -0.036,0.45304 -0.269,0.63018 -0.146,0.11346 -0.339,0.15346 -0.484,0.2906 -0.07,0.06204 -0.121,0.15346 -0.154,0.22448 -0.216,0.63752 -0.685,1.08073 -1.154,1.54853 -0.079,0.08567 -0.154,0.17305 -0.185,0.26444 -0.048,0.13712 -0.057,0.30694 -0.039,0.44494 0.07,0.4007 0.33,0.7151 0.621,0.9909 0.15,0.1772 0.355,0.3216 0.442,0.5143 0.147,0.311 0.178,0.6097 0.252,0.9241 0.119,0.4293 0.096,0.8456 0.17,1.2905 0.039,0.0947 0.201,0.0792 0.24,0.1926 l 0.023,0.0237 c 1.848,1.4979 2.834,3.0791 3.872,4.7354 0.332,0.5305 0.67,1.0733 1.043,1.6284 l 0.024,0.0311 0.016,0.0432 3.001,7.7409 1.492,3.8301 0.008,0.0285 0,0.0228 c 0.612,2.5053 0.659,5.137 0.71,7.7018 0.023,1.2236 0.048,2.497 0.137,3.7198 0,0.0547 -0.008,0.1217 0.023,0.1698 0.057,0.0931 0.026,0.2237 -0.038,0.3217 -0.182,0.017 -0.351,-0.1135 -0.528,-0.0743 -0.047,0.0073 -0.103,0.0073 -0.15,0.0277 L 168.1,44.0626 c -3.084,-1.6163 -6.097,-3.5271 -9.021,-5.3728 -4.974,-3.1509 -10.129,-6.4104 -15.726,-8.2642 -5.223,-1.3762 -10.489,-3.2561 -15.585,-5.0806 -11.819,-4.2243 -24.046,-8.5988 -37.0418,-7.056 -1.9887,0.2874 -4.1833,0.1731 -6.306,0.0547 -4.4784,-0.2441 -8.7037,-0.4759 -11.0588,3.0439 l -0.0237,0.0237 -0.0229,0.0311 c -0.3629,0.3542 -0.3008,0.6685 -0.1472,1.1754 0.0328,0.1216 -0.031,0.2449 0.0083,0.3739 0.0858,0.2799 0.0482,0.7477 -0.1063,1.022 -0.2558,0.4016 -0.6539,0.8023 -0.587,1.3689 0.6933,1.813 1.1534,1.9738 1.0015,3.1305 0,0.0514 0.0858,0.0588 0.1176,0.1371 0.1889,0.5583 0.2215,1.1134 0.5281,1.5379 2.0248,1.2987 3.8721,2.7183 5.6599,4.079 1.7289,1.3216 3.5001,2.6905 5.4317,3.9288 l 0.0147,0.0082 0.0171,0.0155 c 2.7647,2.2579 6.1803,6.9066 9.1843,10.9971 1.4138,1.9223 2.7532,3.7435 3.8248,5.0496 l 0.6068,0.7305 -0.9613,-0.1175 c -12.0004,-1.5183 -32.7485,0.5779 -44.3863,4.4831 -0.1774,0.0677 -0.3712,0.0996 -0.5404,0.1771 -0.031,0.0359 -0.0825,0.0677 -0.1136,0.0922 -0.0482,0.0147 -0.0793,0.0229 -0.1308,0.0384 -0.0466,0.0327 -0.0858,0.0906 -0.1447,0.1061 -0.765,0.1616 -3.8361,1.4669 -3.998,1.5069 -0.1373,0.0228 -0.3556,0 -0.4684,0.0702 -0.1626,0.0906 -0.3074,0.2008 -0.4381,0.3232 -0.0622,0.0703 -0.1243,0.1291 -0.2003,0.1845 -0.2763,0.2441 -0.5951,0.3984 -0.8395,0.6457 -0.1545,0.1445 -0.2837,0.2678 -0.4095,0.3935 -0.1374,0.1216 -0.2992,0.1926 -0.4456,0.2906 -0.0638,0.0587 -0.1291,0.1061 -0.1929,0.1461 -0.3392,0.2318 -0.7087,0.2391 -1.1223,0.2832 -0.0482,0.0156 -0.0874,0.0621 -0.1308,0.0776 -1.3627,0.5241 -2.6861,0.9289 -4.0569,2.8742 -1.0717,1.5223 -3.1782,2.0145 -5.2185,2.4905 -1.5172,0.3542 -3.0883,0.715 -4.1787,1.4979 l -0.0311,0.0237 -0.0311,0.0155 c -1.4844,0.6685 -2.7335,1.5223 -3.9466,2.3451 -0.8035,0.5462 -1.643,1.1208 -2.5136,1.6122 -4.4542,2.2301 -7.9005,4.0121 -12.3743,6.5165 C 9.30074,82.4027 6.76754,84.1104 3.75202,86.6315 3.66946,86.6936 3.56728,86.7687 3.582,86.8945 3.59017,86.9533 3.54276,86.977 3.52478,87.008 3.47573,87.0407 3.42995,87.0643 3.4136,87.0986 3.34657,87.1378 3.29834,87.2015 3.23622,87.2407 2.85775,87.5617 2.46865,87.8214 2.03541,88.0615 1.79099,88.2077 1.55884,88.3212 1.40516,88.5458 1.23596,88.8055 1.06593,89.0374 0.998901,89.351 0.896726,89.7806 1.02669,90.2363 0.913077,90.6659 0.873833,90.8341 0.58937,90.8341 0.550133,90.9868 0.510896,91.2514 0.474929,91.5177 0.37275,91.7431 0.336783,91.8101 0.388281,91.9048 0.349044,91.9856 0.250952,92.2257 0.137329,92.4544 0.018801,92.6855 0.011444,92.7247 0,92.7852 0.0261579,92.8227 0.0980924,92.9411 0.250952,93 0.373567,93.0392 c 0.278745,0.098 0.626151,0.0547 0.894273,-0.0156 0.16022,-0.0588 0.32207,-0.1617 0.48392,-0.2082 0.08746,-0.0311 0.1218,-0.1887 0.2248,-0.2213 0.20108,-0.0466 0.4128,-0.0637 0.61389,-0.1323 0.5158,-0.1822 1.00789,-0.3741 1.52451,-0.5203 0.24769,-0.0702 0.4921,-0.1649 0.68501,-0.3373 0.20844,-0.151 0.3237,-0.3707 0.55585,-0.4883 0.20437,-0.1152 0.40627,-0.1732 0.6139,-0.2205 0.03106,-0.0082 0.06376,-0.0327 0.09073,-0.0482 0.03107,-0.0155 0.09319,-0.0074 0.12589,-0.0327 0.04332,-0.0147 0.09809,-0.0563 0.13733,-0.0735 0.02289,-0.0228 0.06212,-0.0228 0.08992,-0.031 1.81305,-0.8061 3.66781,-1.5778 5.58961,-1.9739 0.6621,-0.0792 1.2834,-0.1372 1.894,-0.1928 2.0918,-0.2009 4.0643,-0.3936 5.6639,-1.283 1.4764,-1.0543 2.9265,-2.2132 4.3333,-3.3238 1.9169,-1.5305 3.9025,-3.1098 6.0131,-4.4787 0.0825,-0.0546 0.1962,0.0074 0.2599,-0.0546 0.0466,-0.0596 0.1062,-0.0392 0.1618,-0.0392 0,0.0465 0,0.0856 -0.0081,0.1257 0.0981,-0.0082 0.1937,0.1061 0.2559,0.0465 2.0525,-1.5534 4.222,-2.1085 6.4863,-2.7133 2.1866,-0.587 3.2566,-0.8383 5.1727,-1.8758 0.0858,-0.0482 0.1602,-0.1617 0.2469,-0.1536 0.1307,-0.0081 0.1774,-0.0718 0.291,-0.1265 0.0482,-0.0433 0.0547,-0.1216 0.1062,-0.1445 0.1463,-0.0906 0.2403,-0.1926 0.3867,-0.2604 0.0155,0 0.031,-0.062 0.0482,-0.0971 0.1292,-0.0947 0.3303,-0.0237 0.4757,-0.0947 0.614,0.0465 0.5559,0.031 0.9295,0.0074 0.2493,-0.0155 0.5951,-0.0155 0.8558,-0.0792 0.0932,-0.0278 0.2477,-0.1135 0.3458,-0.1371 2.3395,-0.6221 3.5338,-1.1609 6.3212,-2.5134 0.0752,-0.0392 0.1537,-0.0824 0.2362,-0.1135 0.0237,-0.0081 0.0483,-0.0392 0.0793,-0.0718 0.0753,-0.1135 0.1153,-0.2514 0.2527,-0.3061 0.0547,-0.0156 0.1021,-0.0433 0.1601,-0.0515 0.1774,-0.0465 0.3475,-0.0465 0.5249,-0.0857 0.0465,-0.0155 0.0948,-0.0481 0.1446,-0.0702 0.0328,-0.0082 0.0564,0.0392 0.072,0.0466 0.1372,0.0481 0.2836,0.0326 0.4217,0.0392 0.0393,0 0.0622,-0.0311 0.0932,-0.0548 0.0997,-0.0742 0.1627,-0.1689 0.26,-0.2423 0.17,-0.1111 0.3711,-0.1356 0.564,-0.1935 0.1774,-0.0392 0.363,-0.0792 0.5158,-0.0155 0.067,0.031 0.0483,0.1771 0.1136,0.2236 0.0483,0.0433 0.1112,0.0359 0.1774,0.0081 0.0548,-0.0154 0.1152,-0.0391 0.1774,-0.0325 0.2182,-0.0384 0.4382,-0.0703 0.6548,-0.0858 0.0948,0 0.2011,-0.031 0.2983,-0.0669 0.103,-0.0384 0.1546,-0.1535 0.2494,-0.2082 0.1773,-0.0955 0.4283,0.0237 0.6384,0.0637 0.0931,0.1208 1.9766,0.4041 2.7801,0.5191 l 0.1774,0.0703 c 0.0981,0 0.1888,-0.0082 0.2598,0.031 0,0 4.8327,0.9362 9.2273,0.7591 0.3318,-0.0074 0.7258,-0.4841 1.1869,-0.373 0.0073,-0.0874 0.0548,-0.0874 0.0981,-0.1421 l 3.4267,-2.128 c 0.0981,-0.0384 0.1373,-0.16 0.2239,-0.1845 0.2837,-0.0482 0.5902,0.129 0.8739,0.1028 0.2804,-0.0392 0.6024,-0.1779 0.8116,-0.0791 0.3655,0.1771 0.5977,0.5306 0.9222,0.8056 0.1209,0.129 0.3376,0.0392 0.4912,0.1151 0.3711,0.2082 0.8003,0.2629 1.1314,0.5306 0.1757,0.1257 0.3531,0.2939 0.4716,0.4914 0.0842,0.1927 0.1618,0.409 0.3164,0.4482 0.8067,0.1371 1.6146,0.2114 2.4289,0.0979 0.0326,0.0074 0.0947,-0.0237 0.1192,-0.0237 0.4754,-0.0342 0.9679,0.1176 1.4367,0.0156 0.3479,-0.1061 0.7016,-0.2082 1.0715,-0.2156 0.098,-0.0358 0.1062,-0.1575 0.205,-0.1061 l 0.2165,-0.0236 c 3.6778,0.5224 7.3441,0.2473 10.1366,-0.0514 4.3413,-0.9159 8.5353,-0.1698 12.5833,0.5509 2.21,0.3919 4.495,0.8025 6.774,0.9314 2.746,-0.4758 4.094,-2.8986 5.042,-5.2112 0.839,-3.972 0.17,-7.9098 -1.831,-10.8158 -3.004,-3.6905 -6.573,-7.0952 -10.024,-10.3906 -4.347,-4.1574 -8.8502,-8.4494 -12.2756,-13.3888 l -0.5407,-0.7714 3.5414,0.7632 c 2.2019,1.3607 4.7269,1.6457 7.4049,1.9518 2.241,0.2473 4.556,0.5085 6.628,1.4709 5.825,3.3501 11.091,5.7108 17.125,8.2748 0.54,0.2318 1.095,0.2089 1.662,0.3004 0.055,0.0693 0.177,0.0693 0.169,0.2 0.194,-0.0588 0.307,0.0791 0.493,0.1543 0.185,0.0073 0.378,-0.0515 0.563,0.0228 0.422,0.2089 0.847,0.3625 1.277,0.5086 0.686,0.1616 1.37,0.0155 1.984,0.2317 0.918,0.3625 1.757,1.022 2.666,1.3837 0.122,0.0751 0.115,0.1975 0.237,0.2677 0.248,0.0718 0.426,0.1461 0.614,0.2833 0.771,0.6603 1.488,1.1322 2.335,1.684 0.299,0.2628 0.469,0.5224 0.768,0.7787 0.541,0.4058 1.17,0.3143 1.716,0.5976 0.178,0.0702 0.43,0.0791 0.541,0.2751 l 0.145,0.0873 c 2.575,0.5975 5.141,1.5689 7.601,2.5362 1.227,0.4759 2.483,0.9755 3.735,1.4041 0.077,0.0309 0.117,0.1256 0.209,0.1338 0.232,0.0172 0.417,0.0237 0.653,0.0841 0.41,0.1135 0.886,0 1.3,0.1599 0.319,0.1103 0.694,0.1772 0.958,0.378 0.589,0.4604 1.13,0.7673 1.728,0.9829 0.871,0.3297 1.749,0.4677 2.571,0.9362 0.087,0.0482 0.185,-0.0433 0.276,0.0155 0.225,0.2008 0.496,0.3028 0.725,0.4571 l 0.11,0.0907 c 1.315,0.6995 2.671,1.4301 4.044,2.0056 1.658,0.0857 2.816,0.6253 3.951,1.16 1.378,0.6456 2.677,1.2554 4.804,0.8456 0.443,-0.0824 0.898,-0.0155 1.339,0.0481 0.46,0.0637 0.901,0.1291 1.262,0.0156 0.441,-0.169 0.771,-0.5461 1.136,-0.9395 0.392,-0.4368 0.795,-0.9037 1.448,-1.165 l 0.448,0.0278 c 0.874,-0.5461 1.237,-1.3526 1.363,-1.8039 1.002,-3.4652 0.065,-6.5336 -0.929,-9.7858 -0.678,-2.1835 -1.371,-4.4406 -1.402,-6.816 -0.095,-5.2659 -1.734,-9.8755 -3.326,-14.3283 l -0.747,-2.1273 c -0.149,-0.4375 0.039,-0.2474 0.103,-0.6294 0.031,-0.2245 0.299,-0.0718 0.33,-0.08 0,0 4.773,1.8775 7.137,2.546 1.81,0.5069 3.671,1.0375 5.354,1.7371 1.175,0.1461 1.916,0.8456 2.633,1.5428 0.678,0.6326 1.307,1.2391 2.26,1.3371 2.94,-0.1567 4.783,1.8758 6.05,3.7214 2.009,0.6449 2.78,2.182 3.536,3.6815 l 0.238,0.5225 c 0.015,0.0946 0.031,0.1771 0.062,0.2554 0.031,0.0482 0.086,0.0907 0.127,0.0907 0.251,0.0228 0.471,0.0701 0.685,0.2237 0,0 0.007,0.0325 0.007,0.0464 0.096,0.1217 0.254,0.1461 0.371,0.2205 0.048,0.0236 0.103,0.0081 0.149,0.0326 0.079,0.062 0.134,0.1371 0.165,0.2164 0.017,0.0979 -0.008,0.1844 0,0.2832 -0.008,0.0073 0.024,0.0228 0.024,0.031 0.898,2.1664 2.301,3.5427 6.114,5.7345 1.517,0.8538 2.739,2.0961 3.939,3.2872 1.005,1.0236 3.417,3.0766 3.417,3.0766 0.489,1.4823 1.543,1.8439 2.757,2.2644 0.929,0.311 1.882,0.6489 2.679,1.4823 1.866,1.062 3.591,2.9534 5.118,4.63 0.711,0.7829 1.373,1.5224 2.019,2.1428 0.362,0.3314 0.644,0.7233 1.071,1.031 0.598,0.4326 1.322,0.684 1.834,1.2073 1.174,1.1526 1.892,2.5362 3.034,3.7198 0.566,0.5665 1.103,1.0595 1.662,1.5893 0.276,0.2556 0.48,0.4914 0.676,0.7829 0.316,0.4554 0.946,0.6489 1.31,0.9722 0.242,0.2579 0.431,0.5738 0.544,1.0056 0.055,0.3739 0.424,0.5069 0.598,0.8857 l 0.06,0.1673 0,0 z"
             style="fill:#024fa2;fill-rule:evenodd;stroke:none"
             inkscape:connector-curvature="0" />
          <path
             id="path3103"
             transform="translate(68.7781,140.142)"
             d="m 24.0775,33.4606 c -0.0172,0 -0.0327,-0.0236 -0.0482,-0.0481 -0.0237,-0.0343 -0.0752,-0.0433 -0.1063,-0.0433 -0.2803,-0.0237 -0.5558,-0.0947 -0.7724,-0.1102 -1.1698,-0.1135 -1.6153,-0.1306 -2.4777,-0.1534 -0.9139,-0.0237 -1.8547,-0.1291 -2.749,-0.2605 -1.6308,-0.2392 -3.0915,0.3584 -4.7092,-0.1257 -2.6404,-1.1991 -7.52699,0 -10.16649,-1.4424 -0.20027,-0.24 -0.40954,-0.7175 -0.8158,-0.7175 0,0 0,-0.0661 -0.02288,-0.0971 -0.02371,0 -0.09564,0 -0.1308,0 C 1.85394,30.3163 1.65367,30.1073 1.45258,29.9857 1.37002,29.922 1.27193,29.8999 1.16893,29.8681 1.16893,29.8354 1.14605,29.8086 1.11416,29.7857 1.09372,29.7775 1.09372,29.7775 1.07983,29.7702 0.8861,29.6314 0.693184,29.4983 0.484738,29.3604 0,28.6657 0.0474112,28.4249 0.476564,27.6658 0.808442,27.4013 1.14686,26.5091 2.2414,25.7189 3.86401,24.5426 40.6853,0 120.979,8.91632 c 17.015,1.88328 28.877,10.43878 34.888,34.03288 7.728,30.3481 8.454,69.0438 5.705,95.9678 -0.024,0.267 -0.055,0.707 -0.278,0.932 -0.014,0.019 -0.062,0.091 -0.085,0.173 -0.022,0.124 0.023,0.282 -0.022,0.392 -0.095,0.296 -0.254,0.549 -0.332,0.865 -0.142,0.455 -0.156,0.963 -0.252,1.464 -0.07,0.402 -0.118,0.795 -0.345,1.148 -0.057,0.096 0,0.364 -0.119,0.44 -0.118,0.048 -0.252,1.009 -0.338,0.99 -0.237,0 -1.152,0.216 -1.38,0.187 -0.371,-0.077 -0.299,-0.785 -1.015,-0.698 -0.378,0.033 -0.819,0.024 -0.899,-0.1 -0.188,-0.302 -0.285,-0.722 -0.401,-1.057 -0.104,-0.345 -0.702,-0.785 -0.796,-1.129 -0.079,-0.282 -0.064,-0.646 -0.134,-0.914 -0.023,-0.11 0.055,-0.206 -0.023,-0.316 -0.049,-0.072 -0.112,-0.139 -0.156,-0.162 -0.237,-0.182 -0.522,-0.201 -0.711,-0.45 -0.18,-0.301 -0.18,-0.646 -0.331,-0.975 -0.134,-0.33 -0.227,-0.679 -0.409,-0.976 -0.103,-0.143 -0.062,-0.33 -0.119,-0.473 -0.046,-0.149 -0.149,-0.201 -0.196,-0.345 0,-0.033 -0.046,-0.082 -0.046,-0.105 -0.041,-0.115 -0.065,-0.249 -0.135,-0.297 -0.237,-0.148 -0.512,0.072 -0.749,-0.099 -0.093,-0.049 -0.166,-0.178 -0.252,-0.245 -0.062,-0.057 -0.189,-0.033 -0.221,-0.133 -0.04,-0.173 -0.151,-0.283 -0.203,-0.441 -0.316,-0.794 -0.867,-1.836 -0.867,-1.836 -3.452,-7.763 -3.964,-8.078 -7.406,-14.331 -0.615,-0.951 -0.409,-2.161 -0.615,-3.123 -0.203,-0.244 -0.598,-0.961 -0.598,-1.195 0,-2.172 -2.103,-4.329 -2.3,-5.304 -0.85,-3.98 -1.435,-5.922 -1.64,-10.256 0,-0.9615 -2.197,-4.969 -2.599,-5.931 -1.417,-3.3623 -1.764,-6.0132 -2.567,-9.8565 -0.207,-1.2062 -1.087,-3.3664 -1.497,-4.5664 -0.802,-2.6497 -3.797,-6.3311 -4.207,-9.2143 -0.41,-1.684 -1.309,-3.9647 -1.718,-5.6471 -0.809,-3.6063 -1.023,-6.4854 -2.236,-9.8526 -0.41,-1.44 -1.528,-3.2766 -2.513,-4.3345 -0.014,-0.0156 -0.023,-0.0466 -0.048,-0.0392 -0.007,-0.1176 0.048,-0.2824 -0.069,-0.3697 0,-0.1372 0.086,-0.267 0.062,-0.4009 0.031,0 0.017,-0.0669 0.048,-0.0825 0.077,-0.0464 0.048,-0.0791 0.124,-0.1461 0.017,-0.0228 0.034,-0.0701 0.034,-0.1183 0.014,-0.0155 0.045,-0.0416 0.045,-0.0588 0.034,-0.0465 0.034,-0.1061 0.065,-0.1616 0.015,0 0.046,-0.0074 0.046,-0.0229 0,-0.0636 0.031,-0.1387 -0.008,-0.1771 -3.931,-3.3672 -5.123,-1.0905 -6.131,-1.3306 -2.643,0 -4.127,-1.9142 -6.765,-2.3982 -3.251,-0.7273 -0.386,-0.5616 -3.774,-0.5616 -0.638,0 -2.568,-1.9036 -3.178,-2.1436 -3.0417,-1.1992 -5.8342,-2.1199 -8.9288,-1.7885 -4.4627,0.4832 -7.3025,-1.4089 -10.9563,-2.1281 -6.9058,-0.9624 -11.9624,0.6612 -18.859,-0.2955 -1.0153,0 -2.0305,-1.022 -2.8472,-1.2652 -0.1447,-0.0482 -0.322,-0.0718 -0.425,-0.08 -1.308,-0.1518 -2.584,-0.1959 -3.8869,-0.0972 -0.43,0.0466 -0.9295,0.0392 -1.3472,0.0825 -1.0169,0.0947 -2.0681,0.0857 -3.1381,0 -1.285,-0.1062 -1.8474,-0.5355 -2.9035,-0.6065 -1.8237,-0.2441 -3.2297,0.2555 -5.1,-0.0906 -0.2321,-0.0466 -0.5003,-0.2082 -0.7487,-0.2082 -0.0083,0 -0.0083,-0.0155 -0.0238,-0.031 -0.0588,-0.0082 -0.0899,-0.0718 -0.1373,-0.0906 -0.1537,-0.0392 -0.224,-0.1926 -0.3548,-0.2237 -0.8394,-0.2008 -1.6773,-0.3003 -2.525,-0.3943 -1.4918,-0.1518 -2.8946,-0.1052 -4.3945,-0.2987 -0.8003,-0.0539 -1.545,-0.2 -2.3396,-0.3526 -0.8002,-0.0996 -1.5915,-0.0482 -2.3909,-0.2009 -0.5159,-0.0979 -0.9794,-0.1444 -1.4886,-0.3502 -0.515,-0.1412 -1.0357,-0.2008 -1.5515,-0.3934 -0.8395,-0.3542 -1.6863,-0.7461 -2.619,-0.8057 0.0482,0 0.0948,0 0,0 -0.0932,-8e-4 -0.1807,-0.0318 -0.2698,-0.0555 l 0,0 z M 147.117,87.9994 c 0.062,0.0392 0.141,0.0172 0.196,0.0392 0.024,0.0172 0.024,0.0392 0.049,0.0482 0.085,0.0188 0.282,0.0588 0.258,-0.0392 -0.029,-0.0792 -0.029,-0.1854 0.023,-0.2801 0.049,-0.2752 0.592,-1.804 0.433,-3.5207 l -0.368,-2.4255 c 0.103,-1.0468 0.103,-1.2868 0.103,-1.3301 l -0.316,-1.2456 c -0.207,-0.8229 0.095,-4.1263 -0.3,-8.1458 -0.017,-0.4089 0.048,-0.8301 0.031,-1.2554 -0.314,-5.4194 -1.731,-12.1726 -3.457,-17.5365 -0.149,-0.7558 -1.711,-5.1058 -1.866,-5.9352 -1.489,-5.5891 -2.608,-7.6454 -2.608,-7.6454 -1.772,-4.8724 -4.813,-9.4787 -7.098,-12.4909 -0.031,-0.0327 -0.007,-0.0791 -0.031,-0.1061 -0.22,-0.2954 -0.52,-0.4995 -0.74,-0.7796 -0.126,-0.1461 -0.268,-0.2669 -0.409,-0.3657 -0.135,-0.0857 -0.252,-0.1567 -0.372,-0.2465 -0.072,-0.0841 -0.117,-0.1616 -0.196,-0.24 l -0.048,-0.0513 c -1.37,-1.4759 -2.898,-3.1509 -5.403,-2.9705 -0.268,0.142 -0.581,0.151 -0.898,0.1575 -0.292,0.0204 -0.551,0 -0.787,0.1371 -0.018,0.0188 -0.049,0.0433 -0.018,0.0588 0.018,0.0172 0.049,0.0392 0.049,0.0636 0.017,0.0172 0,0.0237 -0.015,0.0327 l -0.017,0 c -0.017,0.0073 -0.017,0.031 -0.041,0.0392 -0.021,0.0188 -0.046,0.0106 -0.062,0.0188 -0.007,0.0081 -0.017,0 -0.017,0 -0.047,0.062 -0.102,0.1175 -0.212,0.1371 -0.072,0.0082 -0.141,-0.0122 -0.22,0.0082 -0.049,0.0073 -0.08,0.031 -0.096,0.0392 -0.196,0.1518 -0.447,0.2081 -0.709,0.2718 -0.038,0.0187 -0.086,0.0261 -0.11,0.0506 -0.048,0.031 -0.079,0.0791 -0.093,0.1183 -0.048,0.1217 -0.017,0.2515 0.046,0.3731 0.017,0.0719 0.064,0.1461 0.064,0.2163 -0.007,0.1102 -0.055,0.2008 -0.079,0.2988 -0.031,0.1338 -0.127,0.2555 -0.172,0.3934 0,0.0327 0.045,0.0547 0.045,0.0873 l 0,0.0188 c 0.395,0.7004 0.474,1.2939 0.543,1.9224 0.018,0.2008 0.049,0.4016 0.087,0.6131 l 0,0.0171 0,0.0155 -0.331,2.6513 -0.165,1.3216 0,0.0081 c -0.237,0.8009 -0.699,1.5608 -1.142,2.2995 -0.22,0.3519 -0.448,0.7208 -0.646,1.0825 0,0.0155 -0.015,0.0326 -0.015,0.0464 0,0.0409 -0.031,0.0637 -0.063,0.0907 -0.078,-0.0278 -0.118,-0.0825 -0.188,-0.1053 -0.017,0 -0.032,-0.0081 -0.064,-0.0171 l -0.03,-0.0311 c -0.812,-0.9208 -1.552,-1.9191 -2.285,-2.8742 -1.214,-1.6456 -2.666,-3.1974 -4.392,-4.6022 -1.669,-1.1991 -3.263,-2.0138 -4.804,-3.2831 -3.584,-2.9583 -7.287,-6.2692 -12.3669,-7.6935 -0.8004,-0.2131 -1.5804,-0.5502 -2.3391,-0.8882 -1.6156,-0.7004 -3.1331,-1.3607 -4.6555,-0.7477 l -0.0155,0.0073 -0.0155,0 c -0.2026,0.0482 -0.2336,0.1461 -0.272,0.3004 -0.0122,0.0384 -0.0596,0.0621 -0.067,0.1021 -0.0236,0.0897 -0.1241,0.2113 -0.2246,0.2595 -0.1698,0.0703 -0.3985,0.1306 -0.4769,0.2906 -0.0825,0.5861 0.0547,0.6939 -0.2165,0.9845 -0.0073,0.0155 0.0237,0.031 0.0237,0.0546 -0.031,0.1772 -0.1315,0.3299 -0.0996,0.4915 0.5088,0.6375 0.9294,1.2783 1.3321,1.9003 0.3969,0.6049 0.7987,1.2269 1.2749,1.8285 l 0.0082,0.0082 0.0081,0.0073 c 0.5946,1 0.9916,2.7419 1.3395,4.2708 0.1617,0.7159 0.3144,1.4 0.4762,1.9004 l 0.0776,0.2914 -0.33,-0.1698 C 87.4674,24.2308 79.4513,21.5248 74.4257,20.9281 74.3514,20.9199 74.272,20.9028 74.1895,20.9028 c -0.0155,0 -0.0392,0 -0.0548,0.0081 -0.0229,-0.0081 -0.0311,-0.0081 -0.0548,-0.0081 -0.0236,0 -0.0515,0.0081 -0.0744,0 -0.3146,-0.0547 -1.6945,-0.1445 -1.7566,-0.1535 -0.0597,-0.0155 -0.1291,-0.0547 -0.1856,-0.0465 -0.0752,0 -0.1537,0.0073 -0.2207,0.0228 -0.0392,0.0082 -0.0793,0.0156 -0.1103,0.0237 -0.1447,0.0155 -0.291,0.0155 -0.43,0.0515 -0.0859,0.0155 -0.1536,0.0326 -0.2248,0.0464 -0.0744,0.0172 -0.1447,0.0082 -0.2158,0.0172 -0.036,0.0057 -0.067,0.0057 -0.1079,0.0057 -0.1602,0.0172 -0.3057,-0.031 -0.4602,-0.0767 -0.0229,0 -0.0466,0.0074 -0.0638,0 -0.6057,-0.0522 -1.1697,-0.1315 -2.0321,0.2 -0.685,0.2555 -1.5556,0.0857 -2.3984,-0.0743 -0.6187,-0.111 -1.2719,-0.24 -1.8204,-0.1853 l -0.0343,0 c -0.6695,-0.0237 -1.2883,0.0237 -1.8875,0.0743 -0.4014,0.0391 -0.8223,0.0718 -1.2318,0.0792 -2.0641,-0.0311 -3.6638,-0.0392 -5.7858,0 -1.2409,-0.0229 -2.5399,0.4016 -4.1191,0.653 -0.0392,0.0081 -0.0997,0.0171 -0.1153,0.0482 -0.0073,0.0155 -0.031,0.0155 -0.0392,0.0228 -0.0237,0 -0.0466,0 -0.0548,0.0082 -0.0359,0 -0.067,0.0082 -0.098,0.0155 -0.2011,0.0359 -0.394,0.0515 -0.5951,0.0515 -0.1136,0.0073 -0.229,0 -0.3221,0.0391 -0.1153,0.0392 -0.2207,0.0898 -0.2992,0.1616 -0.1153,0.098 -0.1545,0.2441 -0.2763,0.3388 -0.0466,0.0392 -0.1537,0 -0.1929,0.0392 -0.0621,0.0661 -0.1292,0.1289 -0.2085,0.1771 -0.0237,0.0188 -0.0237,0.0506 -0.0588,0.067 -0.0703,0.0465 -0.1578,0.093 -0.2493,0.1338 -0.0155,0.0106 -0.0229,0.0343 -0.0229,0.0417 0.0074,0.0392 0.0466,0.0791 0.0858,0.1061 0.0908,0.0702 0.2207,0.1102 0.3376,0.1256 0.0679,0.0082 0.1464,0 0.2133,0.0082 0.0393,0.0082 0.0793,-0.0309 0.1268,-0.0236 0.0826,0.0154 0.1618,0.0391 0.2517,0.0481 0.2249,0.0229 0.4455,0.0433 0.6621,0.0825 0.1022,0.0155 0.2085,0.0237 0.3148,0.0082 0.103,-0.0172 0.1855,-0.0564 0.2943,-0.0564 0.0997,0 0.1822,0.0082 0.268,0.0237 0.0082,0 0.0328,0 0.0393,0 0.0155,0 0.0433,0.0155 0.0588,0.0082 0.0173,0 0.0393,0 0.0638,0 0.0082,0 0.0237,0.0073 0.0392,0.0073 0.8159,0.0392 1.6463,0.0947 2.4295,0.2644 0.2558,0.0662 0.5003,0.1372 0.7324,0.2115 0.8158,0.24 1.5842,0.4726 2.3313,0.4571 0.7488,-0.0702 1.5017,-0.1772 2.225,-0.28 0.9941,-0.1371 2.0175,-0.2824 3.0499,-0.3543 0.0507,0 0.0744,0.0311 0.1136,0.0237 0.0237,-0.0073 0.0467,0.0074 0.0638,0.0155 -0.0081,0.0082 -0.0171,0.0156 -0.0237,0.0327 0.0311,0.0074 0.0515,0.0465 0.0899,0.0465 1.0406,-0.1306 1.9431,0.0343 2.8953,0.1853 0.9221,0.1534 1.3627,0.2425 2.2693,0.2359 0.031,0 0.0776,-0.0237 0.1177,-0.0073 0.0515,0.0147 0.0752,0.0073 0.1307,0.0073 0.0238,-0.0073 0.0393,-0.0237 0.0638,-0.0237 0.0744,-0.0073 0.121,-0.0236 0.1962,-0.0155 0,0 0.0155,-0.0171 0.031,-0.0237 0.0638,-0.0122 0.1309,0.0392 0.1938,0.0482 0.2158,0.0948 0.2003,0.0792 0.3376,0.1257 0.0948,0.0343 0.2248,0.0825 0.3318,0.1054 0.0385,0 0.1219,0 0.1538,0.0081 0.9858,0.1698 1.5245,0.1853 2.8078,0.2163 0.0311,0 0.072,0.0073 0.103,0.0073 0.0155,0 0.0311,-0.0073 0.0393,-0.0073 0.0588,-0.0236 0.0981,-0.0546 0.1536,-0.0465 0.0237,0 0.0516,0 0.0753,0.0074 0.0703,0.0155 0.1332,0.0326 0.2084,0.0464 0.0155,0.0082 0.0384,0 0.0638,0.0082 0.0147,0 0.0147,0.0204 0.0147,0.0286 0.0523,0.031 0.1062,0.0384 0.1544,0.0621 0.0075,0.0081 0.0238,0 0.0516,0 0.0465,-0.0082 0.0858,-0.0237 0.1332,-0.0237 0.0825,-0.0074 0.1619,0.0081 0.2452,0.0237 0.0704,0.0155 0.152,0.0236 0.1913,0.0668 0.0172,0.0237 -0.0147,0.0548 0,0.0793 0.0082,0.0155 0.0392,0.0236 0.0638,0.0236 0.0278,0.0074 0.0515,0.0074 0.0743,0.0156 0.0875,0.0228 0.1701,0.0464 0.2559,0.0742 0.0441,0.0155 0.0826,0.0155 0.1218,0.0237 0.0483,0.0081 0.0907,-0.0155 0.1308,-0.0155 0.0858,-0.0082 0.1537,0.0637 0.224,0.102 0.0171,0.0514 0.6548,0.3902 0.9376,0.5306 l 0.0466,0.0514 c 0.0326,0.0082 0.0752,0.0229 0.0907,0.0392 0,0 1.612,0.9437 3.2665,1.5224 0.1291,0.0392 0.3613,-0.0327 0.5068,0.0637 0.0237,-0.0237 0.0409,-0.0172 0.0638,-0.0237 l 1.6618,-0.0873 c 0.0433,0.0082 0.0826,-0.0229 0.1218,-0.0155 0.1152,0.0237 0.1929,0.1101 0.2991,0.1534 0.1136,0.0237 0.2559,0.0327 0.3148,0.0873 0.103,0.1062 0.1185,0.2319 0.1929,0.3453 0.0155,0.0588 0.1234,0.067 0.1618,0.1062 0.0952,0.1028 0.2406,0.1853 0.3165,0.3069 0.0384,0.0539 0.0776,0.1257 0.0858,0.1927 -0.0082,0.0636 -0.0172,0.1371 0.031,0.1689 0.2671,0.1543 0.5595,0.2906 0.8813,0.3698 0.0098,0.0082 0.0326,0.0082 0.0482,0.0172 0.1772,0.0546 0.3316,0.1616 0.5243,0.2081 0.147,0.0204 0.2997,0.0432 0.4378,0.0898 0.0392,0.0082 0.0621,-0.0229 0.0947,0 l 0.0825,0.0253 c 1.2627,0.6604 2.6708,1.1117 3.7578,1.4227 1.7756,0.3739 3.1862,1.1723 4.5493,1.9428 0.7441,0.409 1.5085,0.8457 2.331,1.2073 1.0993,0.2597 2.0476,-0.2008 2.8316,-0.6922 1.0479,-0.9468 1.5331,-2.1011 1.3395,-3.1745 C 98.5343,28.2111 97.8564,26.785 97.1956,25.4087 96.356,23.67 95.5009,21.8717 95.1538,20.0514 l -0.0556,-0.28 1.1631,0.7078 c 0.5619,0.6767 1.4415,1.1166 2.3702,1.577 0.78,0.3861 1.5875,0.7828 2.1785,1.3379 1.525,1.7306 3.031,3.1183 4.781,4.6635 0.153,0.1388 0.375,0.209 0.559,0.3159 0.009,0.031 0.055,0.0465 0.033,0.0775 0.079,0.0171 0.093,0.067 0.154,0.1151 0.062,0.0229 0.146,-0.1616 0.201,-0.1151 0.113,0.1151 0.24,0.209 0.377,0.307 0.216,0.1371 0.5,1.2472 0.685,1.3999 0.276,0.2441 0.462,0.5583 0.729,0.7902 0.031,0.0392 0.008,0.0702 0.039,0.1134 0.07,0.0547 0.131,0.1029 0.169,0.1698 0.162,0.2988 0.348,0.5396 0.556,0.8212 0.055,0.1184 0.075,0.2163 0.137,0.3388 0.122,0.1935 0.371,0.2555 0.524,0.4171 0.048,0.0506 0.139,0.0906 0.147,0.1616 l 0.038,0.0466 c 0.84,0.551 1.608,1.204 2.333,1.8447 0.362,0.3144 0.732,0.4678 1.115,0.7903 0.031,0.0155 0.023,0.0546 0.054,0.0701 0.08,0.0359 0.155,0.0751 0.224,0.1217 0.132,0.0979 0.332,0.1371 0.455,0.2522 0.097,0.0792 0.222,0.1534 0.283,0.2555 0.135,0.2204 0.273,0.3967 0.456,0.5502 0.26,0.2318 0.722,0.0155 0.931,0.2718 0.023,0.031 0.077,0.0155 0.098,0.0515 0.046,0.0856 0.125,0.1567 0.184,0.2391 l 0.024,0.0392 c 0.34,0.3967 0.701,0.8056 1.094,1.1754 0.583,0.276 0.907,0.6066 1.213,0.9208 0.387,0.3935 0.741,0.7633 1.584,0.964 0.181,0.0433 0.331,0.1291 0.479,0.2131 0.151,0.0874 0.302,0.169 0.45,0.1927 0.196,0.0155 0.379,-0.0392 0.583,-0.098 0.222,-0.0637 0.457,-0.1388 0.732,-0.1151 l 0.168,0.0751 c 0.416,-0.0237 0.691,-0.2008 0.816,-0.3069 0.994,-0.8367 1.214,-1.8522 1.451,-2.9223 0.158,-0.7273 0.314,-1.4743 0.74,-2.151 0.929,-1.5133 1.174,-3.0667 1.41,-4.5737 l 0.118,-0.7199 c 0.024,-0.1535 0.065,-0.0702 0.142,-0.1698 0.062,-0.0539 0.134,0.0236 0.144,0.031 l 0.055,0.0514 c 0,0 0.33,1.6163 1.211,2.4081 0.67,0.6049 1.355,1.2301 1.93,1.8913 0.471,0.3061 0.63,0.7747 0.795,1.2188 0.151,0.4171 0.276,0.8097 0.678,1.0546 1.308,0.5616 1.648,1.8212 1.786,2.8815 0.729,0.702 0.729,1.5233 0.709,2.2979 l -0.014,0.2629 c -0.031,0.075 0.014,0.1542 0.172,0.3142 0.134,0.1372 0.331,0.8465 0.206,1.0979 -0.079,1.2073 0.204,1.9828 1.37,3.7125 0.464,0.6767 0.316,1.5926 0.567,2.3517 0.214,0.6458 0.805,2.022 0.805,2.022 -0.127,0.7232 0.252,1.0963 0.678,1.5363 0.327,0.3232 0.675,0.6693 0.833,1.1852 0.575,0.8457 3.83,9.4665 5.634,23.2252 0.062,0.4865 0.258,0.9313 0.394,1.3281 0.795,0.7713 0.408,3.0516 0.628,4.5077 0.113,0.7269 -0.118,1.4276 0.103,2.1201 0.158,0.3054 0.079,0.7579 0.189,1.105 0.205,0.6607 0.433,1.1319 1.039,1.3058 0.059,0.0164 0.088,0.0719 0.129,0.1029 l 0,0 z"
             style="fill:#f15728;fill-rule:evenodd;stroke:none"
             inkscape:connector-curvature="0" />
          <path
             id="path3105"
             transform="translate(357.81,335.384)"
             d="M 0,6.40952 C 0,2.83171 2.83568,0 6.42503,0 10.0177,0 12.855,2.83171 12.855,6.40952 12.855,9.98241 10.0169,12.8191 6.42503,12.8191 2.83568,12.8191 0,9.98241 0,6.40952 l 0,0 z m 1.03978,0 c 0,3.01289 2.44984,5.36628 5.38607,5.36628 2.94766,0 5.38845,-2.35339 5.38845,-5.36628 0,-3.03742 -2.43997,-5.3663 -5.38845,-5.3663 -2.93623,0 -5.38607,2.32888 -5.38607,5.3663 l 0,0 z M 8.69586,5.07978 C 8.48988,4.18513 7.73292,3.70188 6.65555,3.70188 c -1.76485,0 -2.49808,1.33953 -2.49808,2.62111 0,1.52566 0.89835,2.67336 2.5365,2.67336 1.07329,0 1.76487,-0.50201 2.00189,-1.44484 l 0.99152,0 C 9.49855,9.09672 8.176,10.0437 6.69397,10.0437 c -2.18174,0 -3.59263,-1.64573 -3.59263,-3.68316 0,-2.12807 1.34141,-3.70188 3.57791,-3.70188 1.51145,0 2.7253,0.91343 3.00813,2.42031 l -0.99152,0 0,8.1e-4 z"
             style="fill:#161413;fill-rule:evenodd;stroke:none"
             inkscape:connector-curvature="0" />
          <path
             id="path3107"
             transform="translate(339.69,338.264)"
             d="m 0,0 5.49888,0 0,1.03751 -2.15803,0 0,5.75894 -1.18773,0 0,-5.75894 L 0,1.03751 0,0 z"
             style="fill:#161413;fill-rule:evenodd;stroke:none"
             inkscape:connector-curvature="0" />
          <path
             id="path3109"
             transform="translate(345.96,338.264)"
             d="m 0,0 1.67165,0 1.88255,5.31406 0.01635,0 L 5.38852,0 l 1.6643,0 0,6.79645 -1.13541,0 0,-5.24223 -0.02371,0 -1.88255,5.24223 -0.97684,0 -1.885,-5.24223 -0.01389,0 0,5.24223 L 0,6.79645 0,0 z"
             style="fill:#161413;fill-rule:evenodd;stroke:none"
             inkscape:connector-curvature="0" />
        </g>
      </g>
    </g>
  </g>
</svg>
